<?xml version="1.0" encoding="utf-8" ?>
<svg baseProfile="full" height="300mm" version="1.1" viewBox="0,0,200,300" width="200mm" xmlns="http://www.w3.org/2000/svg" xmlns:ev="http://www.w3.org/2001/xml-events" xmlns:xlink="http://www.w3.org/1999/xlink"><defs /><rect fill="#222222" height="300" width="200" x="0" y="0" /><text fill="#FFFFFF" style="font-size:12px; font-family:Arial; font-weight:bold;" x="10" y="20">Over 10km Workouts</text><text fill="#FFFFFF" style="font-size:4px; font-family:Arial" x="10" y="280">Runner</text><text fill="#FFFFFF" style="font-size:9px; font-family:Arial" x="10" y="290">taobao</text><text fill="#FFFFFF" style="font-size:4px; font-family:Arial" x="65" y="280">SPECIAL TRACKS</text><rect fill="yellow" height="2.6" width="2.6" x="65" y="283" /><text fill="#FFFFFF" style="font-size:3px; font-family:Arial" x="70" y="285.5">Over 20.0 km</text><rect fill="red" height="2.6" width="2.6" x="65" y="287" /><text fill="#FFFFFF" style="font-size:3px; font-family:Arial" x="70" y="289.5">Over 40.0 km</text><text fill="#FFFFFF" style="font-size:4px; font-family:Arial" x="120" y="280">STATISTICS</text><text fill="#FFFFFF" style="font-size:3px; font-family:Arial" x="120" y="285">Number: 12</text><text fill="#FFFFFF" style="font-size:3px; font-family:Arial" x="120" y="290">Weekly: 1.3</text><text fill="#FFFFFF" style="font-size:3px; font-family:Arial" x="141" y="285">Total: 198.9 km</text><text fill="#FFFFFF" style="font-size:3px; font-family:Arial" x="141" y="290">Avg: 16.6 km</text><text fill="#FFFFFF" style="font-size:3px; font-family:Arial" x="167" y="285">Min: 10.5 km</text><text fill="#FFFFFF" style="font-size:3px; font-family:Arial" x="167" y="290">Max: 29.7 km</text><polyline fill="none" points="13.0,55.99521676063887 13.791173874691594,56.2989965910092 14.058075904671568,56.079018163116416 14.22965578106232,55.53430809384736 14.83971756399842,55.670485822345654 15.068490732519422,55.576208948376006 15.21147396293236,54.93721946832375 15.621359223267063,54.51820829028293 15.535569285042584,53.90016436945734 15.707149161491543,53.585903636449075 16.526919682277367,52.43360786639096 17.53733451012522,51.951735736562114 17.499205648724455,51.72127452947461 17.060723742237315,51.6898479699812 16.29814651363995,51.302253119662055 16.260017652297392,50.89370596143999 16.70803177403286,50.42230381931586 16.803353927622084,49.38521316664992 18.786054721917026,49.42711597763264 19.281729920534417,48.91380562445556 20.282612533017527,49.269980367738754 21.67431597522227,48.18050164885062 22.837246248906013,47.99193710936379 23.504501323914155,48.43192061483569 25.477669902902562,48.39001748715964 25.592056487163063,48.65191181626142 25.344218887912575,49.09189311652153 25.601588702586014,49.00808726791729 26.297440423630178,49.14427174483717 26.993292144790757,48.65191181626142 27.212533097947016,48.71476637773594 27.088614298321772,48.42144483415905 27.79399823473068,47.29005561691156 27.755869373329915,46.85006829595659 28.079964695498347,46.818640573917946 28.43265666376101,46.52531480645848 29.37634598411387,46.42055544543109 29.852956751943566,46.09580089657538 29.976875551627018,45.68723758443957 30.3581641659257,45.50914548752917 29.910150044073816,45.582477556607046 29.95781112095574,45.70818958002201 30.310503089101985,45.40438531800464 29.910150044073816,45.63485758096067 30.52021182695171,45.50914548752917 30.768049426260404,46.011993141022685 30.949161518074106,46.02246911339171 30.949161518074106,45.896757390059065 30.79664607241284,45.88628140770015 30.834774933755398,46.05389702547836 30.949161518074106,45.97008924324473 30.806178287719376,45.88628140770015 30.891968225943856,45.991041193810815 31.58781994698802,45.582477556607046 31.473433362785727,45.26819697301835 30.310503089101985,43.99011487085954 30.396293027384672,43.50821184086817 33.675375110295136,43.24630728040211 33.66584289493039,42.544400489059626 34.485613415716216,42.26154147044872 35.23865842894884,42.37678040323226 36.144218887900934,41.86344256281882 37.11650485434802,41.55962942863698 37.90767872903962,40.89961916934408 38.86090026475722,41.004382923507364 39.29938217124436,40.83676087683125 40.97705207410036,39.71578295323707 42.22577228595037,38.67860796110472 42.35922330094036,38.49002981179365 42.25436893198639,38.175732295945636 42.83583406882826,37.55761165878357 43.474492497742176,38.238591859146254 43.76999117381638,38.79385003047355 44.532568402413744,38.81480312313943 44.61835834069643,41.14057567928103 44.999646954995114,41.39200808896567 44.92338923213538,41.601534730209096 44.62789055600297,41.685345293342834 44.818534863123205,43.99011487085954 45.58111209172057,43.96916260190483 45.93380405998323,43.6444020064082 46.74404236540431,43.466307146212785 50.86195939977188,44.12630453791644 52.28225948807085,44.58725313490868 52.6349514562753,43.92725805392547 53.05436893197475,43.801544330061006 53.36893203883665,44.0215432680634 53.95992939098505,44.07392391342728 54.49373345100321,44.62915747278021 55.70432480139425,44.73391825913859 56.3048543689074,44.95391563919111 57.067431597504765,44.744394333218224 60.55622241832316,44.73391825913859 60.7468667254434,44.513920511519245 60.661076787277125,44.37773124542582 61.42365401587449,44.17868514154543 61.375992939050775,44.032019398793636 61.18534863193054,44.14725678187824 61.19488084729528,43.94821032958862 61.461782877275255,44.032019398793636 61.48084730794653,44.4091595501086 61.62383053835947,44.5767770483435 61.62383053835947,44.419635649974225 61.45225066191051,44.47201613695506 61.62383053835947,43.92725805392547 62.18623124441365,43.592021190183004 63.17758164164843,43.41392625912704 64.06407766987104,43.068211881683965 65.0268314210116,43.099640498934605 66.06584289495368,42.932021120082936 66.15163283317816,43.717735114114475 66.42806707852287,44.157732902611315 66.47572815528838,44.56630096097069 66.07537511026021,47.75099313815008 65.67502206529025,49.03951446740393 65.59876434243051,50.118510433574556 65.9800529567292,50.57943805418472 66.82842012355104,50.69466970726353 67.0,51.09274191479926 66.71403353923233,51.41748414027825 65.86566637241049,51.39653305312095 65.52250661957078,51.595568246521 64.40723742271075,53.97349176593707 63.61606354807736,54.895318410497566 62.70097087370232,55.2933779215673 61.84307149157394,56.02664229282527 61.013768755539786,57.35698294504982 60.72780229477212,59.13773286737705 60.65154457191238,61.12795429385733 60.44183583406266,61.94498385847692 59.78411297436105,62.59441400047217 59.71738746686606,62.94007712548773 59.88896734331502,63.45333281983767 59.050132391857915,65.89388866186346 59.03106796112843,66.23954313076683 59.336098852567375,66.62709403273766 59.25984112970764,67.18223252820462 59.52674315968761,67.84211109371245 59.43142100609839,68.87905644883722 58.80229479254922,69.94741585624433 58.71650485432474,73.63423670757766 58.563989408663474,73.70755312179972 58.478199470438994,75.63471281377133 58.21129744040081,76.94390848834155 57.65842894965317,78.12741018778615 57.01977052068105,78.81865405260032 55.628067078476306,79.00717447757779 55.26584289490711,78.7558138510285 55.13239187991712,78.2426177503221 54.24589585169451,78.12741018778615 54.09338040597504,78.87102086436062 53.19735216232948,78.76628722005262 53.130626654892694,79.21664130024146 53.43565754633164,80.03355872839165 53.31173874664819,80.32680990374502 53.14969108556397,80.16971114092303 52.787466901994776,80.45248877919948 52.129744042351376,81.4683886240673 51.777052074088715,81.64643212056399 51.376699029118754,81.54170068114763 51.19558693730505,81.63595898034691 51.119329214445315,82.3795498669424 50.71897616941715,82.26434591961879 50.34721977048321,82.44238834121643 49.64183583401609,81.51028123312426 48.564695498673245,81.66737839845155 48.28826125327032,81.37413020505483 48.30732568399981,81.16466681040765 48.57422771397978,80.871417498769 48.79346866719425,81.14372045260825" stroke="#4DD2FF" stroke-linecap="round" stroke-linejoin="round" stroke-width="0.5"><title>2025-04-28 14.8km</title><desc>1745826563000</desc></polyline><polyline fill="none" points="73.17618270794628,81.7243965708767 75.86926124442834,81.51646984418039 76.15870426472975,82.95808997812856 78.44907946861349,82.4590689916804 78.87695175944827,82.2234196891659 79.20414821716258,81.53033163379587 80.3241668608971,81.16992474108702 80.60102540196385,81.22537200449733 81.39384758792585,81.94618480224744 83.77231414587004,82.51451583944436 87.42181309714215,81.2530956295086 92.64437194127822,80.08869953076646 94.1545094383182,82.83333486727497 96.70915870420868,83.62344904091151 98.34514099272201,83.63731066070613 99.12537869956577,82.87491991426214 99.61617338610813,82.043217063474 99.95595432299888,80.1580090430507 99.69168026099214,78.64705534171662 99.79235609411262,78.24505624937592 100.69843859237153,77.01132902884274 101.70519692380913,76.81725877268764 101.88137963175541,76.23504668998066 102.83780004654545,74.91813113482203 102.81263108830899,73.85072902071988 103.65579119086033,73.5457557709451 103.95781869022176,73.98935304631595 104.17175483563915,76.96974256382964 104.3731065018801,77.08063978154678 105.02749941730872,76.81725877268764 106.04684222792275,77.06677763327025 106.34886972734239,76.62318829749711 106.36145420646062,76.15187337437237 107.19202982983552,75.25082654305152 107.35562805866357,74.80723252237658 108.0855278489762,74.39136208854325 108.32463295268826,73.78141696599778 108.9161034723511,73.33781915412692 109.29363784659654,72.54765771668463 109.21813097177073,72.13178181722469 108.6266604521079,71.5356912737625 107.85900722438237,70.09397536820325 107.78350034949835,69.67809353323537 108.01002097409219,69.19289678747009 110.26264274056302,68.67997302439471 111.48333721741801,68.61065888495068 111.7350268002483,68.25022490941046 112.62852481938899,67.80661282522487 114.10090887895785,67.7372983336536 114.42810533667216,67.4323142387002 114.3651829410228,66.94711115430982 115.7368911675294,66.66985163404024 116.32836168719223,66.0182900011132 116.93241668608971,65.71330285626755 117.02050804003375,65.00628512106778 117.36028897686629,64.54880150746612 116.90724772773683,62.982257486029994 117.05826147750486,62.011824824279756 116.90724772773683,61.138430743973004 116.47937543690205,60.8195714817557 116.70589606149588,59.90458074923663 117.47354928922141,58.78163091975148 117.71265439287527,58.726176417054376 118.14052668371005,59.51640139105439 119.04660918191075,59.40549284196459 119.17245397338411,59.94617134278815 118.85784199484624,61.77614749383065 119.68841761822114,61.15229417676164 120.31764157535508,60.40366720723978 120.35539501276799,60.01548897626344 120.88394313678145,59.69662763066299 121.60125844785944,60.306622731659445 121.41249126073672,60.72252724105783 121.75227219756925,61.29092844290426 121.65159636444878,61.66524040294462 121.95362386386842,61.84546438927646 123.1743183406652,61.48501622762706 122.9603821951896,61.18002103891922 123.08622698672116,60.63934641968808 123.89163365174318,60.63934641968808 124.45793521316955,60.459121168620186 124.8354695874732,60.08480658179906 125.20041948260041,60.070943062906736 124.98648333718302,59.65503697677923 125.09974364947993,59.07276676526817 124.45793521316955,58.116175706585636 124.8732230248861,58.102312028888264 125.52761594031472,57.49230910399638 125.98065718938597,57.478445376007585 125.90515031461837,56.757529978698585 126.58471218822524,56.88230401389592 126.79864833364263,57.464581646898296 127.0,57.38139924868301 126.93707760423422,56.410934961240855 126.5343742716941,56.18911378319899 126.18200885562692,54.99682004559145 125.77930552314501,54.70567729489994 125.40177114884136,53.88770216512785 124.34467490093084,52.97267452451342 123.89163365174318,51.932864472910296 123.94197156833252,51.516938690372626 123.62735958985286,51.18419733950577 123.67769750632579,50.615762707733666 123.94197156833252,50.615762707733666 124.59636448376114,50.102783498950885 125.03682125377236,50.130512143994565 125.55278489855118,48.36973430415674 124.81030062917853,45.66614265338285 124.97389885800658,44.23807450715685 124.69704031688161,43.71121141666663 124.50827312975889,42.07515257310297 124.14332323457347,41.79785291971348 121.50058261473896,42.17220734604052 120.85877417848678,41.853312886174535 120.73292938701343,41.5898778859264 119.80167793045985,41.29871241557703 118.95851782796672,41.31257744917821 118.11535772541538,40.9243560856994 117.33512001857162,40.25883170704765 117.19669074803824,39.51011369891057 117.7252388720517,39.16348388628103 117.70006991375703,38.73366194705886 117.91400605917443,38.4008958361519 118.5558144954266,37.98493729090842 118.51806105795549,37.30553616739053 118.31670939165633,36.889574969463865 117.83849918429041,36.889574969463865 116.61780470749363,36.36268933930842 115.19575856439769,37.09755569430126 113.67303658812307,36.79251721166656 112.79212304821704,37.12528643863334 111.4455837799469,37.91561076877406 110.60242367745377,38.927775214091525 109.91027732461225,39.03869698247581 109.4194826380699,40.28656194098585 108.86576555581996,40.74411015441001 108.50081566063454,40.96595127377077 107.78350034949835,40.882760887616314 107.39338149607647,41.14619697230228 106.58797483105445,41.076871726021636 105.74481472844491,41.56214786237979 104.78839431365486,41.60374289599713 104.41085993940942,41.31257744917821 103.90748077369062,41.56214786237979 102.81263108830899,40.66091966081876 100.89979025861248,40.89662595477421 99.98112328129355,41.381902600318426 99.30156140757026,41.36803757234884 97.980191097653,41.74239293532446 96.98601724539185,42.42177651033853 94.56979725003475,42.504966151187546 93.81472850148566,42.83772431181569 93.04707527376013,43.835994926223066 92.54369610809954,44.016237613381236 91.87671871355269,43.94691352531663 91.56210673501482,44.21034491113096 90.56793288269546,44.030102427641395 87.98811465856852,42.948643555428134 87.10720111860428,42.823859401309164 85.91167560004396,42.13061245002609 85.81099976692349,43.17048182783765 86.23887205775827,43.350725213240366 86.88068049401045,44.54309976840159 86.7925891400082,45.26406641477661 87.19529247260652,45.92957140292856 86.3898858075263,47.84288388410641 86.21370309952181,49.16000690517831 86.22628757858183,50.06119052297436 86.40247028670274,50.32461253393558 86.31437893264228,50.782134014123585 85.58447914232966,51.61398812966945 85.8865066418075,51.489210269093746 86.60382195288548,51.87740776005376 86.61640643206192,52.01604950855835 86.88068049401045,51.821951029327465 86.69191330688773,51.891271939937724 86.66674434859306,51.66944492756738 87.34630622231634,52.00218533874431 87.68608715920709,51.919000296344166 87.96294570027385,52.43197408292326 88.69284549058648,52.72312068597239 90.0016313213273,53.69360580004286 90.5805173619301,54.80272493328084 92.11582381726475,56.06433924472367 92.2416686086799,56.57730065686337 91.9522255884367,57.28435306654137 92.39268235833151,58.04685730699566 92.73246329522226,59.41935641450982 92.69470985780936,60.40366720723978 92.22908412956167,60.667073364616954 91.82638079696335,61.30479186333832 92.40526683750795,61.928644626867026 92.10323933814652,62.607948394157575 92.89606152410852,63.273386216154904 93.41202516894555,64.07745348053868 92.8205546492245,65.17264249685104 93.55045443947893,64.89538011442346 94.34327662544092,65.57467215701763 93.58820787689183,65.5469460037275 92.68212537863292,66.39259166657575 92.84572360751918,66.82234442552726 93.23584246094106,67.09960369984037 93.29876485664863,67.5154917728214 93.72663714748342,67.66798381414264 94.1545094383182,68.47203052228724 94.05383360519772,68.94336649929755 93.41202516894555,69.62264254587353 93.70146818918874,70.64848291649832 93.55045443947893,71.5079660818883 91.24749475647695,72.54765771668463 90.74411559069995,73.37940649762459 90.98322069447022,74.80723252237658 90.90771381964441,75.93007766938535 91.24749475647695,77.108364074782 91.14681892329827,78.3282285524474 90.88254486129154,78.56388319279358 90.68119319505058,79.75601348292548 90.85737590299686,80.40752305593924 87.28338382660877,81.23923381755594 83.65905383357313,82.48679241781065 81.39384758792585,81.93232304615958 80.62619436025852,81.14220110262977 79.26707061287016,81.44716087945562 78.95245863433229,82.11252578803396 78.4868329060846,82.43134556109726 76.15870426472975,82.91650495120848 75.83150780701544,81.50260805348807 73.95642041484825,81.48874626166071 73.0,81.7243965708767" stroke="#4DD2FF" stroke-linecap="round" stroke-linejoin="round" stroke-width="0.5"><title>2025-04-26 18.7km</title><desc>1745625707000</desc></polyline><polyline fill="none" points="174.0719307733816,35.79239227987273 175.084369929682,35.95846298858669 175.23039480799343,36.12453337709303 175.03569497022545,36.27782883621694 174.87993510003434,36.073434830104816 174.4515954569797,36.686615393453394 174.78258518123766,38.1684504020086 174.43212547322037,38.756067571244785 174.58788534341147,39.30535825694824 174.44186046515824,39.77800092725374 174.1108707409585,40.2889630591817 173.48783126013586,40.595538883637346 172.45592212001793,40.26341502455034 171.4629529475351,40.812696099150344 171.7744726879755,42.63934983230865 172.32936722552404,43.17584217190597 172.747971876699,43.98057441721903 173.14710654405644,45.66665570006444 173.0692266089609,45.84548056737549 171.7452677122783,46.30531423600769 171.8036776636145,48.987628390212194 171.21957815036876,49.69012544083671 170.63547863712301,49.932804909061815 170.66468361276202,50.08607579996169 170.40183883183636,49.856169361344655 170.1974040021305,50.290436563700496 170.03190914011793,50.252118957381754 169.6327744727023,50.737474044493865 169.04867495945655,51.00569541971345 168.79556517035235,50.929060826281784 168.83450513792923,51.044012690894306 168.64954029209912,51.0312402690397 168.7858301785309,51.21005400228023 168.50351541372947,51.13341959060199 168.5911303407047,51.312233111784735 168.32828555977903,51.15896440207143 168.34775554353837,51.33777787024155 168.16279069765005,51.35055024664325 167.99729583557928,51.17173680497217 167.9291508923634,51.41441210015182 167.68577609519707,51.12064718204056 166.72201189835323,51.60599737672601 166.28393726341892,52.781044420888065 166.31314223905792,54.32646233210107 165.8458626284264,54.93951299852779 165.83612763654673,55.28435208166775 166.69280692265602,55.59087455253757 166.67333693889668,56.52320703276928 167.1990265008062,57.02129833316576 167.46187128173187,57.672644151054556 167.23796646832488,58.24735696060816 167.51054624124663,58.37507039774209 167.49107625742909,58.83483720428194 168.01676581939682,58.285671011617524 168.4937804218498,57.327814625474275 169.39913466741564,56.84249665916286 170.36289886425948,55.6164180425767 171.57977285020752,54.799022606021026 174.0135208220454,53.904987468835316 175.70740941050462,53.06203155731055 176.96322336397134,53.15143636312132 177.2260681449552,54.56912874241971 178.50135208218126,55.00337219212088 178.41373715526424,55.53978754978016 178.63764196861302,56.17837290740863 179.53326122224098,56.995755259587895 179.69875608436996,58.84760846943391 180.39967550028814,59.34568633448362 181.44131963228574,59.30737275478168 181.53866955108242,60.07364111261995 181.72363439697074,60.07364111261995 181.81124932394596,60.30352029127971 181.7723093564273,61.82326165595441 181.5484045430203,62.14253164525144 181.5776095186593,62.525654071054305 181.82098431582563,62.34686381764186 182.5219037317438,62.295780819993524 182.84315846400568,62.755526708991965 183.17414818820544,62.385176046060224 183.68036776635563,62.206385501158366 184.2547322877217,62.423488257401914 184.54678204434458,62.793838755729666 185.44240129803075,63.06202260577993 185.8318009735085,62.972628081835865 186.12385073007317,62.64059046671173 186.38669551105704,62.832150785390695 186.1822606814676,64.53063365257549 186.5619253650657,65.9098281958286 186.82477014604956,65.88428775672219 187.0,66.29293387418875 186.20173066522693,66.73988834653574 185.7052460789564,67.40393071108701 185.37425635481486,67.37839071475173 185.31584640347864,67.56994050279172 184.7609518658719,67.41670070640248 184.49810708488803,67.53163057921483 184.2547322877217,67.23792059961124 183.86533261218574,68.04242815972975 183.6608977825963,67.94026888579538 183.5343428880442,68.08073785620945 183.29096809087787,67.82533955793042 183.10600324498955,68.19566684353049 182.73607355327113,67.58271047351445 183.00865332613466,67.45501068105659 182.06435911305016,66.89312934632471 181.90859924280085,66.62495741792372 181.94753921037773,66.29293387418875 182.07409410492983,66.34401450263977 181.84045429958496,65.45009913385002 181.58734451053897,65.32239618135645 181.42184964841,65.47563970160991 181.49972958350554,65.11807106388005 181.3537047052523,65.34793678700953 181.25635478633922,65.11807106388005 181.08112493238878,65.23300400204607 180.64305029745447,64.67110818041692 180.33153055707226,64.95205654918391 180.1270957274246,64.07089723326499 180.39967550028814,63.89211018564674 180.4094104921096,63.57284667807835 179.76690102758585,63.63669947419112 179.26068144943565,63.06202260577993 178.81287182256347,62.94708677222661 178.2969172525336,63.394058597201365 177.08004326664377,63.36851741249848 176.90481341263512,63.82825757875253 176.10654407792026,63.62392891876516 175.9021092482144,63.86656914855848 175.55164954031352,63.73886384961952 175.45429962140042,63.9048807013678 175.29853975120932,63.73886384961952 175.26933477557031,63.93042172706191 175.03569497022545,63.71332276711473 174.43212547322037,64.05812674218032 174.40292049752316,63.78994599188445 173.52677122771274,63.202499527506006 173.61438615468796,62.90877479365736 173.2541914548492,62.385176046060224 173.21525148727233,62.7172146452649 172.96214169822633,62.81938011074817 172.1541373715154,62.487341905143694 171.91076257434906,62.5895076431043 171.66738777718274,62.18084396447375 171.44348296377575,62.34686381764186 171.4921579231741,62.51288335098798 171.12222823151387,62.27023930975702 171.17090319097042,62.55119550555537 171.02487831260078,62.55119550555537 170.888588426169,61.69555332906748 170.24607896158705,61.74663668251742 170.34342888050014,61.376281683755224 169.8858842617483,61.29965631289815 169.48674959439086,60.87821555518167 169.16549486207077,61.03146697826742 168.776095186593,61.79772000571393 168.44510546245147,61.89988656125206 168.35749053541804,62.33409307104739 168.15305570577038,62.34686381764186 167.65657111949986,62.15530242020759 167.89021092484472,61.7083241702494 167.73445105465362,61.12086351586913 167.3937263385742,62.11699008963478 166.2936722552986,62.602278351849236 165.9724175229785,63.33020562129241 165.98215251485817,64.84989361198677 165.73877771763364,65.9098281958286 164.92103839915944,66.88035927343299 164.8723634396447,67.39116071387252 164.5511087073828,67.60825040929922 164.32720389403403,68.31059567759075 164.10329908056883,68.22120659767097 163.76257436454762,68.39998466481484 163.6749594375724,69.23002083289612 163.27582477015676,69.94512250606203 163.18820984312333,70.53252301336033 162.80854515952524,70.68575726994459 162.3217955651926,70.50698394410574 161.11465657112421,71.00499442941509 160.93942671711557,70.63467921465053 161.07571660354733,69.93235288534197 160.1119524067035,69.75357799679477 160.02433747972827,69.56203306184761 160.18983234179905,68.50214339378726 159.33315305568976,68.32336553859204 158.72958355868468,67.71041007674648 157.98972417524783,67.65933025817503 157.66846944298595,67.27623065369698 157.48350459709764,66.10138124787773 157.6879394267453,65.64165320769098 157.5516495402553,64.65833777827356 157.6489994591684,63.9048807013678 157.44456462952076,63.35574681730941 157.16224986477755,63.12587578039529 157.14277988107642,63.48345268398407 156.60735532722902,64.19860204016732 156.5489453758928,64.70941937553289 156.1692806922947,65.04144901991094 156.2666306111496,65.20746336239972 155.59491617092863,65.53949108796951 155.10816657653777,67.05914012194262 153.96917252568528,67.07191016835714 152.72309356409824,68.47660372288374 152.10005408333382,68.45106404441322 151.73012439155718,68.70646048850176 151.27257977286354,68.73200009129505 150.45484045427293,68.39998466481484 149.7052460789564,68.38721481514949 149.30611141159898,68.55322271288605 148.5759870200418,68.28505594994931 148.52731206058525,68.45106404441322 148.90697674418334,69.02570497931447 148.90697674418334,69.7663476439775 148.18658734450582,70.37928848433512 148.24499729584204,71.29869157189387 148.49810708494624,71.77115878805489 148.4202271498507,72.33300832253735 147.34937804221408,73.67377082265011 146.81395348836668,73.76315424778295 146.2687939426978,73.57161822327907 145.94753921037773,73.78869235218008 145.37317468901165,73.76315424778295 145.65548945375485,75.25712063160609 145.20767982694088,76.85320995342045 144.04921579232905,78.20667054146179 143.96160086535383,78.61525824098499 143.6208761492744,78.93446603368648 143.3093564088922,79.99422742884781 142.54029204975814,80.31343011523859 142.45267712284112,80.73477585137152 141.92698756081518,80.39003858406795 141.2942130881711,80.35173435816978 140.6614386154688,80.60709554275672 140.4764737696387,80.87522397244174 139.54191454843385,80.90075996987434 138.51000540837413,81.3348707687328 137.77988101681694,82.688260992305 138.0427257977426,83.6330679882667 137.72147106548073,83.875651897637 138.10113574907882,84.20760772012 136.88426176313078,83.59476520329918 136.41698215255747,83.69690592533152 136.54353704705136,83.30110995339055 135.98864250950282,83.30110995339055 135.40454299625708,82.61165456584422 135.19037317467155,81.8711222668353 135.57003785832785,81.41147832982824 135.02487831260078,80.09637241710152 133.49648458627053,79.24090440261352 133.67171444027917,78.97277088939154 133.3504597079591,78.97277088939154 133.13628988643177,78.73017318256461 133.65224445651984,78.18113374593668 133.4088696592953,76.48291986367258 134.15846403467003,76.6616807952596 133.8177393185906,76.21477777124528 134.27528393728426,76.1637029923586 133.1557598702493,75.57634086034523 133.0,74.88682368517766 133.16549486207077,73.45669640428241 133.52568956190953,73.11193002796063 134.84964845865034,72.5117778609274 136.2806922661257,72.2436234143097 137.8577609518543,70.77514379379863 138.22769064363092,70.72406579148083 138.19848566799192,70.5197534796971 138.3639805300627,70.60914017571486 138.3250405624858,70.40482759143197 138.5489453758928,70.63467921465053 138.7047052461421,70.02174019053928 139.5224445646163,68.94908640935319 139.28880475932965,67.64656029881007 139.86316928075394,67.17407047159213 139.79502433753805,66.62495741792372 139.96051919955062,66.40786524561554 140.1260140616796,66.56110683574661 140.07733910222305,66.16523217061331 140.27203893999103,66.35678465501405 140.19415900489548,65.74381520635507 140.03839913470438,65.73104496311862 141.48891292588087,65.01590832345391 142.04380746354582,65.01590832345391 142.40400216332637,64.27522483350913 142.83234180643922,64.14752014012629 143.79610600328306,63.342976220243145 144.29259058949538,63.66224057940417 144.74040021636756,63.61115836141107 145.69442942133173,63.07479324450105 145.85018929152284,63.202499527506006 146.91130340722157,62.193614733776485 145.06165494862944,60.62279591105471 145.27582477015676,60.111954351654276 145.8599242834607,59.72882119479618 146.10329908062704,59.23074554421328 145.2271498107002,58.285671011617524 144.96430502977455,57.36612908533425 145.86965927528217,55.78245054317085 146.09356408868916,55.00337219212088 146.85289345594356,54.27537457967264 148.79989183344878,52.98539879278542 149.94862087618094,52.512828572202125 150.35749053541804,50.75024650989508 150.9026500811451,49.664580193893926" stroke="#4DD2FF" stroke-linecap="round" stroke-linejoin="round" stroke-width="0.5"><title>2025-04-20 19.4km</title><desc>1745099741000</desc></polyline><polyline fill="none" points="40.1095006915275,136.52942699115374 42.04401290975511,132.31706614221912 43.577022592071444,130.59199391800212 46.64304195670411,129.54892412683694 49.85506224329583,129.34833353487193 51.899075153050944,127.98431539189187 52.88458137749694,126.21910996144288 54.308090368052945,120.2815554048284 55.47609774512239,118.11513294276665 61.316134630236775,115.78822436742485 63.06814569560811,113.98285686279996 63.76165007567033,112.45831926545361 63.87115076743066,107.2427610209852 66.09766482980922,102.4283516422438 62.009639010299,100.58281584852375 60.29412817535922,100.66305667583947 56.57110466109589,98.21570569465985 48.285552330547944,94.92580531412386 47.37304656719789,93.0 48.869556019082665,98.1755850877089 48.57755417469889,106.1194029476028 46.825543109327555,113.62178258557105 44.12452604994178,119.35882105043856 40.80300507158972,123.25034142861841 35.218469800427556,127.1017134495778 31.458946055732667,128.465733981604 25.545908709755167,129.34833353487193 24.231900410261005,130.31116764817853 20.54537712666206,130.39140374126146 17.55235822312534,132.19671245780773 15.325844160746783,135.12531062029302 13.90233516995795,140.30046302449773 14.15783678367734,142.78772666692385 15.471845083171502,145.0743937017687 18.793366061290726,147.0 22.881391880800948,146.51859911516658 25.180906404275447,145.59591280066525 24.742903637932613,145.274978034402 33.46645873482339,139.9394076044846 36.45947763836011,139.337647996319 38.43049008701928,138.17424404984922 40.51100322743878,136.16836886943202 42.117013370851055,132.03624083372415 43.321520978352055,130.67222996635246 46.825543109327555,129.50880601484096 49.599560629809275,129.46868789964356 52.008575844578445,127.78372417713399 55.33009682316333,118.07501392040285 61.38913509133272,115.58762829750776 63.50614846218377,113.34094685773016 64.38215399463661,105.19664265640313 66.1341650604736,102.34811109607108 62.19214016292244,100.66305667583947 60.00212633097544,100.62293626373867 57.84861272969283,99.45944292491185 57.41060996335,98.6169115882949 48.17605163878761,94.68508005252806 48.869556019082665,98.77739385628956 47.774549103109166,108.88767368067056 46.49704103451222,114.06309555587359 45.037031813059,117.31275188934524 41.56950991298072,122.36773119462305 34.92646795604378,127.2621866450645 30.765441675437614,128.62620674268692 25.25390686537139,129.50880601484096 23.720897182822227,130.43152178291348 20.32637574360706,130.351285696408 18.099861680995673,131.59494360422832 15.289343930082396,134.9648399288708 13.865834939526394,139.65858654343174 13.975335631053895,141.8249163905275 15.070342547027394,144.63310788894887 18.537864447571337,146.75929961513611 20.69137804885395,146.95988327715895 26.494914703303948,144.43252330078394 32.1159502051305,140.34058027740684 36.24047625530511,139.25741332763573 39.342995850369334,137.25154245845624 43.431021669879556,130.55187588901026 49.818562012631446,129.34833353487193 51.278571234084666,128.42561578337336 52.738580455305055,126.45982015700429 54.563591982005164,119.43905888751033 52.15457676677033,127.86396067263559 49.5265601684805,129.54892412683694 46.38754034275189,129.90998699117335 43.10251959506422,131.03329202588066 40.547503457870334,136.16836886943202 37.773485937388614,139.01670924481004" stroke="#4DD2FF" stroke-linecap="round" stroke-linejoin="round" stroke-width="0.5"><title>2025-04-14 10.8km</title><desc>1744632646000</desc></polyline><polyline fill="none" points="82.53705473046284,131.24698130013712 85.54790736309951,130.22181449990603 86.32718686806038,130.10502293644822 87.23634629044682,129.45617939413933 87.20092449476942,129.06687202939065 88.91297795256833,128.08062254521064 88.57056726102019,127.60047261090949 86.92935739451787,127.52261032612296 86.36260866367957,127.22413789012353 85.39441291516414,125.47222344538022 85.47706377168652,124.04472368249844 85.29995479335776,123.78517692816968 86.00839070696384,123.07142122308142 86.61056123347953,121.747720552783 86.91755012935027,121.48817014136876 87.70863689947873,121.05991105902649 89.30261770501966,120.77440437910263 90.04647541430313,120.13850134021777 90.83756218443159,117.19255081383744 92.92744812945602,116.38792070806085 93.6358840430039,115.82986846318818 93.96648746932624,113.79231264711416 93.82480028667487,113.05255678034155 94.14359644777142,112.4296018670866 95.3951665617642,111.222619946333 96.89468924549874,110.82029065293318 98.37059739872348,108.86054344012518 98.57132090756204,107.77034273538447 98.41782645962667,106.08311297984619 98.48867005103966,106.52439014147967 98.37059739872348,106.45949651619594 97.6621614851174,103.64308827700734 96.68215847143438,101.07323551658192 96.50504949304741,99.85319021758914 97.07179822388571,95.98532663591322 96.38697684073122,94.81716185965342 94.8048033004161,93.7398469181062 95.15902125724824,93.0 97.1072200195631,93.89560373580025 99.58674571703887,95.67381684803695 105.27784755604807,101.76112936990103 106.64749032224063,103.50031974258309 106.57664673100226,103.94160389919125 107.92267496674322,107.10843160608783 108.71376173687167,110.32711145433132 109.65834295499371,114.84353889229533 109.87087372905808,118.43842185074755 110.3195498076384,120.96906807876076 111.70099983905675,122.9805793636915 113.43666782736545,126.17299148226448 113.89715117117157,127.4707021156355 114.02703108865535,129.44320249697194 114.8299251240096,129.59892519497953 115.23137214174494,132.32404833719193 117.167763638834,138.9030865229288 117.46294526947895,141.5112708032102 117.34487261722097,143.22408555360744 117.25041449541459,143.4706255899946 116.6246294384473,143.52252870806842 115.60920462897047,147.0 114.10968194529414,146.74048977658094 112.30317036563065,145.6505423302442 110.62653870350914,145.46888371450768 107.04893733991776,145.66351793793729" stroke="#4DD2FF" stroke-linecap="round" stroke-linejoin="round" stroke-width="0.5"><title>2025-04-12 10.7km</title><desc>1744420875000</desc></polyline><polyline fill="none" points="173.59680506965378,145.65280906921544 177.43950853974093,145.54917853602092 179.47873461438576,146.55957342179317 180.8578643873916,147.0 181.0582507646177,146.75387941193185 181.5297481229063,146.77978685976996 182.31950619805139,144.62945466431847 182.64955434889998,143.11384202216868 182.67312921676785,139.20168265332177 182.44916797155747,138.9555502787407 180.5278162366012,132.45233906611975 180.2920675573987,131.42890169203747 180.20955551974475,129.62815448943002 180.15061834990047,129.45973826479167 179.2901356710354,129.2783667510812 179.2901356710354,128.00876049650833 178.960087520245,126.60959111315606 177.1330352568766,123.07274820920429 175.57709397451254,120.75367762481619 175.31777042744216,119.35444586840458 175.11738405015785,115.53240892114991 174.12723959778668,110.45349548487866 173.31390665471554,107.20135284992284 171.86405227793148,103.85844524699496 171.85226484399755,103.35311602719594 170.57922197662992,101.62980200981838 165.4752630731673,96.16172235974227 164.08434586616931,94.94368905799638 162.46946741401916,93.89409985223028 160.50096594309434,93.0 160.20628009422217,93.68677278810355 161.86830828222446,94.87889979705506 162.4458925460931,95.94144041708205 161.90367058408447,99.50478815707902 162.0097574897227,100.93010539250099 163.47139930038247,104.86909897689475 163.83680975303287,107.13656847162929 163.76608514931286,107.87510885467054 163.29458779102424,109.5335732857493 162.280868470727,110.67375777478446 160.854588961869,111.11428145997343 159.52260892477352,112.38401952580898 159.216135641851,112.91523353158846 159.322222547431,113.60192223722697 159.0157492645667,115.7785767174937 158.34386552899377,116.29682349250652 156.17497768084286,117.20375137704832 155.55024368112208,119.88563711856841 154.86657251155702,120.59820802378817 152.5562354559661,121.23304129306052 152.07295066374354,121.59580204935628 151.4600040979567,122.89136957818118 150.71739575860556,123.66870514505717 148.91391836310504,124.26465989863209 147.54657602409134,125.28814231835713 146.12029651523335,126.05251106656215 145.01227772329003,126.32457365309529 143.85710919549456,126.16910937361536 143.25595006364165,125.62498322608008 142.85517730913125,124.22579335077899 142.5369165922748,124.135104703033 138.23450319783296,124.01850493886741 137.95160478289472,124.08328259593691 138.02232938667294,124.44603699917207 137.39759538689395,124.5885474364186 137.4447451227461,124.71810227107198 137.32687078317394,124.61445841158275" stroke="#4DD2FF" stroke-linecap="round" stroke-linejoin="round" stroke-width="0.5"><title>2025-04-11 10.7km</title><desc>1744362364000</desc></polyline><polyline fill="none" points="38.26453869702527,185.9349580963244 37.662439877633005,186.28894013297395 36.39921294269152,186.4274545194712 31.06296458246652,186.48901641062548 16.88412767817499,187.19697557534528 13.590292960230727,187.05846219974774 13.0,187.25853701717278 13.330564057745505,192.8912568484957 13.271534761763178,198.2159011229669 13.472234368207864,198.75450623490178 13.956274595519062,198.90839290445 18.67861827724846,199.12383386457077 22.89331001311075,198.92378155903134 26.553126366459765,198.40056604264828 31.35811106255278,198.2159011229669 31.547004809835926,193.0913205986726 31.181023174431175,184.5036273082951 31.299081766512245,180.70204152127553 31.73589855711907,180.3018666222997 31.09838216006756,162.20005971223145 31.275470048130956,161.72284417680203 32.24355050281156,161.72284417680203 31.204634892870672,161.753632341075 31.53519895055797,160.87616613542195 31.36991692177253,161.43035616781708 31.62964582425775,161.24562648078427 31.405334499373566,161.44575029376574 31.75951027550036,161.72284417680203 35.13598600792466,161.67666191356693 36.552689112431835,161.92296708375216 60.17621338000754,161.72284417680203 62.738084827316925,161.7844204963767 63.25754263228737,162.06151348909043 64.53257542633219,162.07690752286726 64.67424573679455,165.17106267392228 64.48535198956961,165.32499836932402 64.5089637079509,167.17220918006205 66.61040664627217,167.18760246744932 66.74027109757299,167.34153521800908 67.0,174.760827277918 66.94097070401767,174.930141126948 66.26803672936512,174.88396464965626 66.4923480542493,176.02297851986077 66.72846523829503,176.2692501710917 66.6458242238732,176.5924808402633" stroke="#4DD2FF" stroke-linecap="round" stroke-linejoin="round" stroke-width="0.5"><title>2025-04-04 10.5km</title><desc>1743732425000</desc></polyline><polyline fill="none" points="109.49731233716011,179.29975305271364 109.9858452436456,178.96716942552302 109.98002937569981,178.60743418786296 110.41040360287298,178.05764627706958 110.75935567892157,177.24992469100835 110.7128287354717,176.86302926320786 110.84659369796282,176.5100700105031 110.89312064144178,175.5462099239885 110.65467005613027,174.56875966226653 110.76517154689645,173.51662653910898 110.59069550884305,172.82424571859883 110.80588262242964,172.0639758797697 111.00943800012465,171.72456681359472 110.8524095659086,171.5480733946024 110.92801584902918,171.16114382748492 110.61395898056799,170.7131172234076 110.52672096158494,170.2786642161809 110.60232724473462,168.58155416172667 111.05596494360361,167.65151894266455 111.13738709469908,167.08127174903348 111.07341254741186,166.21231396506482 110.85822543382528,165.8185636209746 110.77680328272982,165.11252251097903 110.85822543382528,164.57619766415883 111.05014907568693,164.58977556333411 111.18391403817805,164.3725288342248 111.18972990612383,164.10096939533832 111.90508166205836,163.59858142365556 112.38198283271049,162.39690785630955 112.3063765495317,162.37654031503916 112.3063765495317,162.49874546634965 111.99231968107051,162.4172753911771 112.28311307780677,161.20200123670656 112.34708762506489,160.5162777953883 111.17228230231558,159.08370334990468 111.08504428330343,158.83249033814354 111.12575535880751,158.53374926830293 111.26533618927351,158.3843782151671 111.49797090663924,157.78010088312294 111.36420594414813,157.30482260429562 111.5793930577347,156.50363130125334 111.66081520880107,156.32709628783778 112.17842745498638,156.0147639279021 112.05629422835773,155.3833047593289 112.12608464356163,154.92837873555254 112.00976728487876,154.1271579447639 111.28278379308176,153.0 112.00976728487876,154.09320769168698 111.96905620934558,154.25616874366096 112.04466249249526,154.26295877857046 112.14353224736988,154.92158877063048 112.06211009630351,155.31540555629908 112.17842745498638,156.06908270772692 111.62592000118457,156.374624992779 111.39328528381884,157.20976652875834 111.52705024630995,157.7122042003175 111.14901883056154,158.53374926830293 111.0966760191659,158.88001719910244 111.17809817023226,159.07691382188204 112.35871936095646,160.5026990398619 112.13190051153651,161.81982503310428 112.02139902074123,162.1457077316809 111.90508166205836,162.16607534576178 112.14934811531566,162.15928614179575 111.99231968107051,162.43085374418297 112.32964002128574,162.46479961417208 111.90508166205836,163.60537047635444 111.21880924579455,164.08060239140468 111.14320296261576,164.44720747977408 111.05014907568693,164.5694087135198 110.84659369796282,164.6101424067383 110.75353981103399,165.13288918953913 110.887304773496,165.5945321815234 110.85822543382528,165.8457188941611 111.06759667949518,166.19194762680127 111.14901883056154,167.09484912166954 111.05014907568693,167.57005536606448 110.60232724473462,168.58834269075305 110.52672096158494,170.25151080620708 110.71864460341749,170.93034263153822 110.94546345283743,171.18829685515811 110.8524095659086,171.53449695777817 111.02106973601622,171.77887238399853 110.8175143582921,172.0436113860851 110.59651137675974,172.8174576346064 110.75935567892157,173.48947448982653 110.65467005613027,174.57554756227182 110.88148890557932,175.49869532258163 110.84659369796282,176.42182989614957 110.72446047133417,176.89017989510467 110.7826191506756,177.21598658825678 110.28827037627343,178.2748469981816 109.9858452436456,178.60743418786296 109.98002937569981,179.05540606483555 109.82881680942955,179.53052435979043 109.46241712954361,179.94455316906533 109.20651894042385,179.79523160918325 109.0145952985622,179.84953039814718 108.49116718446021,180.75224108192197 108.32832288229838,181.12553880793712 108.44464024098124,180.92870936653344 108.25853246706538,181.79068214064318 107.36288880516076,183.16845727288455 107.0720954084536,184.0643347077057 106.70569572856766,184.72266096986277 106.58356250193901,185.29275252299703 105.87984248186694,186.31754731752153 105.32151916014845,187.40340487244248 105.31570329220267,187.51198962495982 105.513442801981,187.48484345393808 105.43202065091464,187.41019142483128 105.53089040578925,187.06407634549396 105.50181106611853,186.71117278833844 105.82168380249641,186.2564672883018 106.5544831622683,185.61173012733343 106.74059093618416,185.74067807387473 106.91506697420846,186.29040064498986 106.43816580358543,187.3355393095262 106.37419125629822,188.59782712090964 106.18226761446567,189.31718442040437 106.15900414271164,190.26048044996423 105.92636942534591,191.1630457834617 105.92636942534591,192.3166823802676 102.529902551556,195.01746875301615 102.19258221134078,195.75711168010457 102.00065856950823,196.65960030907445 99.91276198101696,197.43993746897468 99.56380990493926,197.75885516362177 99.41841320655658,198.07777128592716 98.17963333649095,198.09134214988444 96.78964090012596,198.28133394617907 96.27202865394065,198.07098585290078 95.72533706811373,198.43061282322014 95.44035953929415,198.46453979270154 94.68429670782643,198.05062954949972 94.1783161975327,198.0302732397031 93.04422195028747,201.4568285097921 92.97443153505446,201.3889776915239 93.21288212039508,201.29398642637534 91.99736572205438,201.70109086638695 91.64841364597669,202.1217627632359 91.1947759471077,202.311742723301 91.17151247535367,202.854539535394 87.61801716731861,205.5006087874208 87.65291237493511,206.05694804238738 88.01931205482106,206.42331518360152 89.39767275532358,206.97964650575886 90.01997062432929,206.92537048974918 90.65390022916836,207.0" stroke="#4DD2FF" stroke-linecap="round" stroke-linejoin="round" stroke-width="0.5"><title>2025-01-24 17.7km</title><desc>1737679978000</desc></polyline><polyline fill="none" points="164.8013249257201,153.0 164.84031254182628,153.0547177609551 164.62588065315504,153.59277204160753 164.61808312992798,153.78884099856805 164.38805619480263,154.0761032076989 164.39585371801513,154.48647446926043 164.27889086965297,154.71901644890386 163.74086176713172,154.94699756335467 163.795444429692,155.38927748481365 163.72526672069216,155.31176483702802 164.00207879517984,155.68564808735755 163.951394894204,155.9273026082119 164.04496517289954,156.31029944970578 163.9747874638706,156.6112231510051 164.02547136484645,156.5838665377305 164.13073792836803,156.97597633479745 163.89681223162916,157.67811752046327 164.04886393451307,157.93343875117353 164.09954783547437,158.161402857324 163.88121718517505,158.3209770140238 163.90071099324268,158.55805752708693 163.4601509310305,158.72674863633802 163.21452894945105,159.09604308375128 162.96110944464453,159.10060225467896 163.06637600818067,159.52460304291526 163.03128715365892,160.3315607596487 162.03320418088697,161.06100106009762 161.6355304964236,161.526012807597 161.5419602177135,161.72204566835353 161.51077012481983,162.2463152173259 161.24565433517273,163.36321603542456 160.8908670284436,163.8646722948797 160.4931933439657,163.9148175999726 160.35283792592236,164.0105493840747 160.3099515481881,164.32965379559755 160.1578998453042,164.64419726078995 158.6451803396776,166.91431247599758 157.970694580712,168.11769856941828 157.85373173234984,168.63733218128618 157.52233699530188,169.5261646319086 157.0388905553409,169.89080854236818 156.46187383669894,170.83886827915921 155.8965534029121,171.00751133724043 155.79908436260303,171.0941115702335 155.57685495069018,171.65017208092468 155.5807537123037,171.77779151441064 155.7016153222794,171.76867585312357 156.02521253611485,171.44962649385707 156.11488405322598,171.44506862876005 156.13437786127906,171.5179944124029 155.59244999714429,172.34295875187308 155.15968745815917,172.73948295715672 155.31953668427013,173.11777276650173 155.29614411458897,173.5826544941301 159.6042756963434,189.41754540400507 159.88888529404358,189.95514620176255 159.8343026314833,190.06448791772345 159.90058157888416,190.0098170943602 159.955164241459,190.05993201842284 159.88888529404358,190.06448791772345 159.955164241459,190.05537611863474 159.9434679566184,189.987037564184 159.98245557273913,190.02348480669025 160.51658591364685,190.88909777370282 160.48149705913966,190.96199070504372 160.6686376165453,191.19889188206798 160.56726981460815,191.627133019123 160.35673668755044,191.92325472589073 160.16959613013023,192.56560406350764 160.09551965950232,192.62938290891543 160.0214431888744,192.57927096687854 160.044835758541,192.82983009548843 160.71542275587854,193.41294389352697 161.01952616164635,194.08260393282035 161.10919767872838,194.49715018212737 161.01952616164635,195.04835386731065 160.76610665683984,195.65876957436922 161.02342492327443,196.3101738360674 160.9766397839121,196.7338090979356 161.06631130100868,197.07544741177117 161.07410882422118,198.03657537442996 160.90646207488317,198.50574381645856 160.59845990750182,198.72438367994982 160.56337105299463,198.87469794421486 160.66084009328915,199.25275878174216 160.47759829752613,200.04986416406973 160.6101561923424,201.4527339192682 160.4892945823667,201.87176410235406 160.26706517045386,202.25890794250518 160.27876145529444,202.79634893533876 160.35673668755044,203.06506692510084 160.11111470595642,203.2244751124017 160.09941842111584,203.2973472307458 160.55167476815404,204.2628911977008 160.54387724494154,204.55892630039307 160.41911687333777,204.9642633825897 160.5009908672073,205.09633868929814 160.52048467526038,205.5244420813906 160.3177490714006,205.81136006648376 160.2709639320674,206.57646538160043 160.1578998453042,206.9362423658131 160.16179860690318,207.0 160.28655897850695,206.99544588639765 160.37623049560352,206.95445884232322 160.36453421076294,206.89070114095375" stroke="#4DD2FF" stroke-linecap="round" stroke-linejoin="round" stroke-width="0.5"><title>2025-01-22 11.0km</title><desc>1737518708000</desc></polyline><polyline fill="none" points="61.8394906403264,265.98227106267586 62.71869718784001,262.0658873957873 62.63663791009458,259.0254716153722 60.47965118015418,251.96530291503586 60.245196100790054,249.42717433565122 59.27220752154244,249.1437260343664 59.20187099772738,247.24976328395132 58.69779257720802,245.90980346380093 57.10349803767167,242.9335068739456 55.50920349819353,240.44677554938244 54.99340232362738,234.7129748022271 52.977088641317096,226.23430831906444 51.74619947478641,223.63134587700188 51.804813244671095,223.2318776367465 50.97249771299539,222.0978979023348 45.228348269243725,215.9253006157378 42.29765977751231,213.79898603756737 40.69164248404559,213.0515476053988 40.43374189676251,213.21907720954914 40.25790058722487,213.78609919729934 41.969422666414175,214.9716842018097 42.54383761086501,216.11860055477882 42.03975919022923,219.00518549261324 42.367996301327366,220.96391021819727 43.49338068207726,220.78350235361722 43.610608221788425,220.89947886110167 43.8685088090715,220.53866278703208 43.36443038855214,221.3376115832507 43.37615314248251,221.63399481061788 42.96585675358074,222.02058081277937 42.485223840980325,222.12367025729327 43.95056808687514,221.77574311866192 43.51682619005442,221.68553966427862 43.036193277395796,221.99480844134814 43.35270763450535,221.99480844134814 43.11825255519943,221.95614987655426 43.18858907901449,221.71131208496809 43.14169806311838,221.96903606587148 43.43476691230899,221.94326368624752 43.27064835675992,222.12367025729327 43.129975309129804,221.82728792721173 43.77472677733749,221.20874914110755 43.575439959939104,221.3118391030439 43.587162713869475,221.90460510911362 43.38787589641288,221.99480844134814 43.14169806311838,221.81440172658768 43.22375734086381,221.63399481061788 43.37615314248251,221.7370845015248 43.129975309129804,222.02058081277937 42.977579507627524,221.3376115832507 43.45821242022794,221.3118391030439 44.044350118609145,220.59020798974962 43.89195431704866,221.0798865962861 43.24720284884097,221.86594652276835 42.86035196791636,221.3376115832507 42.95413399965037,221.51801882979635 43.89195431704866,220.3969133948267 43.82161779317539,220.1907322390325 44.02090461063199,220.28093652703683 43.51682619005442,220.97679648651683 42.68451065843692,221.4535876934242 42.55556036479538,221.8015155249741 42.18043223780114,221.82728792721173 42.11009571404429,222.25253197057464 42.33282803941984,222.29119046454434 42.41488731716527,222.05923936217732 43.70439025352243,221.28606661873346 43.43476691230899,220.75772978512396 43.51682619005442,221.02834154963784 42.54383761086501,221.81440172658768 44.81805188040016,219.99743716676312 43.84506330115255,220.6030942878424 43.84506330115255,220.47423126050853 42.977579507627524,221.89171891471779 43.76300402340712,224.9843761359516 43.645776483695954,225.42249779426493 43.90367707097903,226.67242659228214 43.88023156306008,227.70328843736206 43.469935174216516,229.32688252377557 42.496946594910696,230.38349849474616 42.42661007109564,230.84737649740418 41.74669034109684,230.73140712143504 40.84403828566428,231.10508592420956 39.42558505560737,232.58690716286947 39.05045692867134,233.81101012448198 39.144238960405346,235.5118536040245 39.01528866676381,235.7695556020044 38.194695889076684,236.34938359697117 36.354223516304046,237.0065194797353 35.68602654017741,239.75099932251032 35.0529978259583,240.4725449818361 32.68500152468914,241.11677945934935 32.16920035012299,241.50331891495443 31.71201294544153,242.58562447949953 30.856251905846875,243.5519626179157 28.94544300925918,244.1704159988003 26.483664676139597,245.7938448809291 25.205884493829217,246.18037316735717 24.02188634313643,246.0257619635522 23.48263966065133,245.5876960841415 23.142679795564618,244.8532888617774 23.072343271807767,243.95138069664245 18.758369812043384,243.95138069664245 18.230845883430447,243.79676736373222 17.562648907362018,240.91062470553152 19.778249407128897,240.16331152175553 18.723201550077647,238.33366812604072 19.555517081695143,239.87984699760273 18.207400375511497,240.3436977786041 18.06672732793959,240.57562267055619 17.281302812159993,240.66581559435872 18.090172835916746,244.05445616987708 22.685492390883155,243.93849625787698 23.048897763888817,244.1704159988003 23.330243859090842,245.35577837389428 23.775708509841934,245.90980346380093 24.432182731979992,246.15460464365606 25.24105275567854,246.18037316735717 26.436773660301697,245.8582663261186 29.13300707266899,244.080225027923 30.973479445499834,243.423117866143 31.629953667579684,242.6500472015614 32.063695564400405,241.59351132174197 32.47399195324397,241.16831810676376 33.130466175382026,240.8462012911623 34.57236491329968,240.62716149029438 35.252284643414896,240.26638940740668 35.58052175445482,239.94427079671004 36.389391778211575,236.95497950693243 38.089191103412304,236.34938359697117 39.073902436648495,235.70513014101016 39.40213954768842,233.656387103445 39.249743746069726,232.98635230508808 39.49592157942243,232.4451683269872 40.234455079364125,231.50453472460504 41.301225690345746,230.84737649740418 42.29765977751231,230.69275064428803 43.28237111069029,229.6232511143753 43.82161779317539,227.6775169712928 43.481657928205095,224.88128851447254 42.54383761086501,222.30407662717334 42.57900587271433,221.87883271925966 43.37615314248251,220.744843499313 42.403164563234895,220.91236513455806 41.910808896645904,219.89434636708756 42.496946594910696,216.00262061909598 41.94597715855343,214.84281668755284 40.18756406346802,213.7345518260263 40.63302871421911,213.0 42.35627354733879,213.79898603756737 44.97044768196065,215.69334038395027 50.39808276866097,221.46647392275918 51.98065455415053,223.51537132823432 51.863427014497574,223.83752264732902 52.64885153027717,225.35806821302685 53.2701574905077,227.1234294577589 54.020413744379766,230.19021560109104 54.98167956969701,234.97067807245185 55.28647117281798,239.54484282898193 55.54437176010106,240.70446968915348 57.81858602963621,244.1704159988003 58.92052490252536,246.5153636023315 59.26048476755386,248.17742127733072 59.21359375171596,249.1437260343664 59.37771230726503,249.28545024704363 59.21359375171596,250.2904001960269 59.565276370733045,252.72544535563793 62.00360919587547,258.3555418195174 62.55457863229094,258.99970513601147 62.51941037038341,262.8130994850944 61.745708608592395,265.98227106267586 61.171293664199766,267.0 60.85477930714842,266.9355869656865 60.643769735703245,266.6135214098176 59.14325722795911,266.17551122613077 57.53723993443418,265.24795633878966 55.89605437905993,265.11912885097263 53.86801794281928,265.14489435672294 53.59839460160583,265.2866045651317 53.11776168894721,264.8614735679439 52.70746530016186,264.8743563418102" stroke="yellow" stroke-linecap="round" stroke-linejoin="round" stroke-width="0.5"><title>2025-01-02 24.6km</title><desc>1735803099000</desc></polyline><polyline fill="none" points="122.5293310463021,214.60428133232926 123.7951972555311,214.60428133232926 125.5612349913863,215.40502343617845 125.25248713549809,216.65362324653688 125.17838765008491,217.50184639076906 125.30806174958707,218.5061316917927 125.91938250427484,220.7725158978501 126.06140651801252,222.54351076644525 125.8576329330972,223.79200613747525 125.14751286446699,225.71899575789575 122.78867924527731,230.63805019532447 122.1835334476491,231.70324258727487 122.14030874782475,231.96105785697 122.30703259003349,232.1781648488104 122.25763293309137,232.49025518260896 121.41783876501722,233.80644969510467 116.50874785587075,241.07907640172925 114.85385934819351,242.95818992982822 113.82264150941046,243.8332864588665 112.90874785589403,244.29457404552522 110.45728987990879,246.09221514686215 107.6476843910641,248.8530469101388 106.35711835330585,249.97906079924724 104.15883361920714,251.37638271329342 101.7753001715173,253.48588855122216 99.11389365349896,254.99846037686802 96.03876500856131,258.12526170540514 94.9334476843942,258.74925175752287 93.78490566034452,258.96629070852214 92.58078902229317,259.33254268942983 91.78421955401427,259.8480057834531 91.4322469982435,260.1803421838558 90.76535162946675,261.1909082031125 89.77735849056626,264.20218850427045 89.39451114920666,264.7311862600618 88.6967409948411,265.2940905364303 87.8631217838556,265.53824063732463 87.20857632931438,265.54502257462445 86.52315608918434,265.4229476209439 85.80686106343637,265.06350369031134 85.18936535163084,264.9075181184962 84.57804459688487,264.6294561764298 82.02161234989762,264.5955461216872 81.27444253856083,264.3717394231862 80.70634648366831,264.08011163456104 78.15608919379883,262.21502668672474 77.47066895366879,262.0319070633268 76.19862778729293,261.9573026599246 74.4387650085846,261.3604650903799 73.7101200686011,261.24516644360847 73.9694682675472,261.2587309983501 74.46963979414431,261.4079409585902 74.35231560890679,261.7402712982657 74.4202401372022,261.9505204382149 73.2593481989461,262.0793825588844 73.0,262.18789787835703 73.33962264147704,262.0454714933221 74.45111492279102,261.9505204382149 74.32761578043574,261.71992457987653 74.45728987990879,261.4215054875167 74.56843910802854,261.4079409585902 76.29742710117716,261.9708671017361 77.50154373928672,262.0251248475179 77.9708404802659,262.15398685582477 78.74888507719152,262.5744825852962 80.61372212690185,264.03941930595465 81.69433962262701,264.5141619354181 82.38593481987482,264.62267416656687 84.53481989706052,264.64980220284633 85.1090909090999,264.9143001057819 85.74511149225873,265.0499397388339 86.45523156088893,265.4026017783908 87.38147512864089,265.56536838330067 88.0730703258887,265.51789482219465 88.53001715263235,265.3619100787837 89.11663807890727,265.00246589172457 89.61063464835752,264.4734698132743 89.88850771868601,263.9241242697972 90.81475128640886,261.08917390942224 91.66072041165899,259.96330631354067 92.46346483705565,259.38680210877646 93.23533447680529,259.0883748764172 94.8963979416294,258.75603423306893 96.16843910803436,258.0235237652596 98.81749571184628,255.23585711306077 99.5584905660071,254.67288663832005 100.37975986275706,254.3540944848428 101.89262435675482,253.39771089293936 104.02915951970499,251.4713455096935 106.41269296739483,249.93836176042532 107.56740994853317,248.94801250966702 110.19176672381582,246.31606969317363 113.70531732417294,243.77223350344866 115.00205831901985,242.6461378371314 116.52109777013538,240.84842424023373 122.41200686103548,232.01533465667308 123.9680960548867,229.06398360915773 124.04219554029987,228.59582889664307 126.87650085761561,222.07532029406866 127.0,220.94893849069194 126.70977701543598,219.51040517351066 126.90737564323354,220.6028784454029 126.04288164665923,220.79965785893728 125.8391080617148,220.70466095733718 124.81406518007861,220.70466095733718 124.30771869639284,218.6282736925059 123.57907375643845,218.73005855954398 122.9986277873104,218.43148927196307 123.14682675813674,217.48148913407204 123.06037735848804,214.57713740049076 121.74511149225873,214.65856917008205 121.48576329331263,214.43463161669933 121.26346483704401,214.46177559386706 121.4919382504304,214.73321489058435 121.50428816466592,215.1946597130227" stroke="yellow" stroke-linecap="round" stroke-linejoin="round" stroke-width="0.5"><title>2024-12-28 29.7km</title><desc>1735369563000</desc></polyline><polyline fill="none" points="135.64165887387935,252.03169242128206 135.52263033081545,252.513265559508 135.70967518416,252.0918891326437 135.38659771019593,251.5099867619574 133.51614917698316,251.91129893920152 133.091047237569,254.41948016350216 134.3833571333089,255.68359050784784 136.61089129565516,255.96450273517985 138.12425419985084,256.5263258998748 137.3760747864726,256.767106729676 135.31858139991527,263.7496133800014 135.77769149444066,264.6926327097026 136.76392799377209,265.45507032747264 144.26272620435338,265.7760957454011 146.21819512546062,265.3748138853116 147.1364153145696,264.7126968980883 148.88783530477667,264.5923117346829 149.82305957144126,264.6926327097026 151.21739393257303,266.21750477810565 151.7785284925485,266.0369284839253 152.7137527591549,263.02729742498195 151.47245509614004,261.96388265118003 150.0951248126221,262.3852364117338 149.44896986475214,262.20465634713764 147.9866191932815,259.03444404981565 148.97285569267115,257.71016193792457 150.89431645860896,256.42600046093867 151.45545101864263,256.20528430213744 152.50970382825471,256.36580517121183 153.85302595666144,255.9043072941131 154.10808712028665,255.56319942163827 153.9210422670003,252.89451006440504 153.41091993969167,251.7909053782496 152.20363043184625,250.66722833296808 151.38743470830377,250.74749120725028 151.03034907917026,249.9247950816789 149.0578760805074,247.5570149167761 149.19390870106872,246.57377519230067 149.84006364899687,245.45006619862397 150.4862185968086,245.08887256062008 153.10484654345782,246.1925175551005 153.75100149121135,246.03198778659862 156.81173545471393,246.83463522451348 157.79797195410356,248.15899582121347 158.30809428129578,248.2593257799599 158.83522068616003,249.4833468595607 159.3963552461355,251.69057735032402 158.3421024364652,253.19549200878828 157.91700049705105,256.38587026995083 155.24736031785142,259.5561283187126 155.16233992995694,261.0409138905816 157.69594748865347,258.1917201751785 159.8894734957721,256.78717178452644 160.02550611644983,256.2253494184115 160.87570999516174,255.28228658001171 160.9437263055006,254.51980669941986 162.76316260593012,254.51980669941986 165.41579870774876,253.15536111140682 166.02794550039107,253.61686590152385 167.77936549065635,253.77738903478894 166.67410044826102,254.1987615914113 166.60608413792215,254.82078597812506 166.02794550039107,255.3224170122412 163.78340726043098,256.20528430213744 163.15425639017485,256.9677571798529 161.36882824479835,258.23184997125645 159.85546534066088,258.91405516174564 155.43440517113777,261.9839471379237 154.82225837843725,262.10433401218324 153.93804634455591,263.95025619637454 154.1590993529535,264.7126968980883 153.49594032758614,265.65571127946896 153.34290362946922,267.0 154.12509119795868,266.45827289401495 154.61820944747888,265.1741726262553 157.93400457466487,262.10433401218324 161.72591387393186,261.462269770127 163.3242971659638,260.4791045463644 165.75588025926845,261.0208493007958 169.9898955753306,260.98072011454497 170.87410760927014,260.739944812929 171.26520139351487,259.8169698970596 171.92836041894043,259.33541592438996 173.23767439217772,257.1282773819985 173.98585380549775,256.58652113696735 174.1728986588423,255.98456787780742 173.8158130297088,254.4997413966339 174.32593535701744,253.31588464826928 174.1558945812285,251.59024926762504 174.68302098603453,250.04518986704352 174.35994351212867,249.12216116065974 176.0603512696689,247.91820369639026 177.76075902715093,246.17245134169934 180.77048075792845,244.26615106425015 182.5048966705799,243.68422387601458 183.33809647179442,243.02202862371632 185.42959801346296,242.54043057542003 186.68789975403342,242.0387645977171 186.63688752130838,241.83809782257595 186.9089527624892,241.97856458822207 185.9567244183272,241.63743082791916 184.6474104450317,239.77121726647601 183.25307608389994,239.49028024783183 182.70894560148008,237.2628358019574 181.3146112403483,235.81799251238408 179.78424425853882,233.32962461809802 180.8384970681509,232.9282717968308 181.1785786196706,231.9248859022482 182.30084773962153,230.82115507961134 181.68870094697922,229.31605689245043 182.130806963949,227.77080990662216 181.26359900756506,226.9279424281267 178.5769547507516,225.4830177405238 177.93079980288167,224.15849344510934 176.26440020051086,221.91079396713758 176.14537165750517,221.5896917933569 176.5704735968029,220.92741678463062 174.95508622727357,217.3551042900508 174.90407399454853,215.68933928548358 174.08787827088963,214.26439576977282 175.07411477022106,213.18062850077695 175.09111884789309,213.4214662250597 174.56399244308705,213.6422338611883 173.4587274006917,213.0 172.08139711705735,213.6422338611883 169.83685887721367,216.03052130149445 167.98341442155652,218.53919310645142 167.88138995604822,219.783481591905 168.98665499844356,221.08796852143132 168.96965092082974,221.75024295051116 167.0141819997225,225.04151070470107 167.0311860772781,225.2823328559316 168.0854388870066,225.12178479025897 170.21094858378638,225.40274381304334 172.5064990564715,226.28575508313952 173.28868662490277,227.34937665145844 175.02310253755422,228.37285573454574 177.57371417386457,228.93476339126937 178.13484873378184,229.53680539930065 178.61096290586283,230.88135875026637 179.83525649126386,232.30617318862642 179.81825241365004,233.2694217508979 178.6789792162017,234.87482478241145 178.66197513858788,235.53704944024503 176.51946136413608,236.84142435117974 176.55346951936372,238.96853892899526 175.7032656405354,239.4501463528868 175.17613923578756,242.52036396268522 174.66601690847892,243.44342587896972 174.68302098603453,245.16913787498197 175.12512700306252,247.09549488588527 174.22391089150915,249.40308343236393 173.35670293524163,249.623807772703 170.97613207472023,251.18893638826557 167.57531655969797,252.2925446946756 166.84414122399176,251.81097097718157 165.1097253113403,251.83103657401807 164.14049288956448,250.9481482393312 163.03522784716915,251.59024926762504 162.0149831927265,251.0284109908098 161.7939301842125,250.2257818969956 161.01174261578126,249.5836760942184 160.53562844364205,250.12545301337377 161.09676300361753,251.91129893920152 159.34534301341046,253.59680050003226 158.27408612618456,255.54313423293934 158.39311466919025,256.2654796444258 158.0870412728982,256.4460655531002 157.865988264326,256.2253494184115 158.24007797101513,253.29581921386125 159.43036340124672,251.61031488855951 158.37611059163464,248.5402493725851 157.9850168073899,248.29945774808584 158.47813505714294,249.38301757008594 158.2230738934595,250.04518986704352 158.3421024364652,251.22906771569978 157.79797195410356,251.61031488855951 156.60768652387196,251.46985549596138 155.41740109358216,252.1922169411264 154.1590993529535,255.74378602132492 153.37691178458044,256.08489355814527 154.0570748875616,257.54964224473224 153.29189139668597,258.2519148659776 153.1898669312941,259.21502723376034 152.16962227679323,261.10110764687124 153.05383431067457,262.80658920502174 151.93156519072363,265.9767363463907 151.47245509614004,266.29776085185586 149.72103510593297,264.6525043262227 147.22143570240587,264.7126968980883 146.38823590124957,265.33468565098883 143.9056405753363,265.8162238830846 136.84894838166656,265.475134432505 135.79469557205448,264.6525043262227 135.30157732235966,263.72954908627435 136.4068423646968,259.69658152235206 137.42708701919764,256.56645606014354 138.1922705101315,256.56645606014354 137.41008294158382,257.0480172984535 136.11777304590214,256.0246981565142 134.94449169322615,255.56319942163827 136.0667608131771,254.84085124579724 136.61089129565516,253.69712748572056 136.38983828708297,251.30933034422924 136.01574858045205,251.59024926762504 135.6926711066044,252.513265559508 135.28457324474584,252.31261023883417 135.64165887387935,252.37280685805308 135.6926711066044,252.05175799390418 135.36959363269852,252.21228249621345 135.87971595989075,251.9915612693585 135.70967518416,252.21228249621345 136.15178120112978,251.30933034422924 136.93396876950283,250.787622631251" stroke="yellow" stroke-linecap="round" stroke-linejoin="round" stroke-width="0.5"><title>2024-12-22 20.2km</title><desc>1734826109000</desc></polyline></svg>