<?xml version="1.0" encoding="utf-8" ?>
<svg baseProfile="full" height="300mm" version="1.1" viewBox="0,0,200,300" width="200mm" xmlns="http://www.w3.org/2000/svg" xmlns:ev="http://www.w3.org/2001/xml-events" xmlns:xlink="http://www.w3.org/1999/xlink"><defs /><rect fill="#222222" height="300" width="200" x="0" y="0" /><text fill="#FFFFFF" style="font-size:12px; font-family:Arial; font-weight:bold;" x="10" y="20">Over 10km Workouts</text><text fill="#FFFFFF" style="font-size:4px; font-family:Arial" x="10" y="280">Runner</text><text fill="#FFFFFF" style="font-size:9px; font-family:Arial" x="10" y="290">taobao</text><text fill="#FFFFFF" style="font-size:4px; font-family:Arial" x="65" y="280">SPECIAL TRACKS</text><rect fill="yellow" height="2.6" width="2.6" x="65" y="283" /><text fill="#FFFFFF" style="font-size:3px; font-family:Arial" x="70" y="285.5">Over 20.0 km</text><rect fill="red" height="2.6" width="2.6" x="65" y="287" /><text fill="#FFFFFF" style="font-size:3px; font-family:Arial" x="70" y="289.5">Over 40.0 km</text><text fill="#FFFFFF" style="font-size:4px; font-family:Arial" x="120" y="280">STATISTICS</text><text fill="#FFFFFF" style="font-size:3px; font-family:Arial" x="120" y="285">Number: 13</text><text fill="#FFFFFF" style="font-size:3px; font-family:Arial" x="120" y="290">Weekly: 1.3</text><text fill="#FFFFFF" style="font-size:3px; font-family:Arial" x="141" y="285">Total: 209.0 km</text><text fill="#FFFFFF" style="font-size:3px; font-family:Arial" x="141" y="290">Avg: 16.1 km</text><text fill="#FFFFFF" style="font-size:3px; font-family:Arial" x="167" y="285">Min: 10.1 km</text><text fill="#FFFFFF" style="font-size:3px; font-family:Arial" x="167" y="290">Max: 29.7 km</text><polyline fill="none" points="25.521723994403146,75.60000000000582 24.409413731249515,75.26042001476162 23.000487397948746,74.40467545537103 22.9757693920983,74.14659292074793 23.556642529554665,73.31800951383775 24.32290071080206,72.78825735871214 25.262184933002573,72.61167294158076 26.053161120100413,72.00041777914157 26.325059184455313,71.66083063175029 26.17675114935264,71.32124280866992 26.30034117854666,70.83223515626742 28.092396602558438,69.96288475887559 29.32829689484788,69.01202769068186 31.478763403603807,68.2105869041552 32.15850856434554,67.43631002710026 32.66522768425057,66.1865925683378 33.15958780120127,65.80624195981363 33.913486979552545,65.42589050346578 35.544875365449116,65.1813784052647 36.19990252045682,64.65160099042987 37.13918674265733,61.391396075094235 38.9930371811497,60.75293198453437 40.031193426810205,60.046543398086214 40.377245508658234,57.805098710916354 40.22893747355556,57.11228257669427 40.95811864605639,55.971167515890556 41.959197882853914,55.12891102704452 42.76253307284787,54.80287514071097 43.3804832190508,54.80287514071097 43.640022280451376,54.31382014270639 44.542229493905324,53.47155547045986 44.86356356990291,52.58853159024147 45.0242306079017,50.5915222629701 44.702896531904116,48.811854791783844 43.23217518400634,44.600353979025385 43.07150814594934,43.2825404254545 43.68945829215227,39.36979687535495 42.98499512550188,38.11987376336765 41.30417072796263,36.89711402641842 41.687299818499014,36.068349662964465 42.89848210499622,36.61180215929926 42.93555911380099,36.910700293883565 44.71525553485844,38.024770542775514 33.19666481000604,32.75325192071614 33.22138281579828,32.40000000000873 36.68190363445319,33.935281871134066 35.70554240344791,36.068349662964465 35.19882328360109,36.761251292104134 33.864050967851654,38.07911524678639 31.923687508853618,39.22035002907796 30.700146219460294,40.42950711901358 29.72378498845501,42.19567622312752 29.340655897802208,43.635769799671834 29.278860883205198,45.19812171808735 29.563117950456217,46.4615784536436 32.34389360825298,49.91226206066494 33.43148586549796,50.9990770858858 34.56851413450204,53.11834646691568 34.97636123094708,55.72664186691691 34.469642111158464,58.79677181095758 33.641588915197644,61.05178781370341 32.60343266959535,62.51889065509022 31.57763542700559,63.469783906737575 29.476604929950554,64.61084881346324 26.287982175592333,65.2900504921563 25.311620944703463,65.31721850311442 24.063361649401486,66.25451223064738 23.494847514899448,67.43631002710026 23.210590447706636,69.28370167934918 23.742027573345695,70.54698004531383 24.22402868734207,70.90015296955244 24.619516780949198,70.94090364457224" stroke="#4DD2FF" stroke-linecap="round" stroke-linejoin="round" stroke-width="0.5"><title>2025-05-19 10.1km</title><desc>1747647446000</desc></polyline><polyline fill="none" points="78.39999999999418,50.796173408511095 79.03293909973581,51.03919727281027 79.2464607237489,50.86321453049459 79.38372462487314,50.427446475077886 79.87177405119292,50.53638865787798 80.05479258604464,50.46096715870226 80.16917917033425,49.94977557466336 80.49708737863693,49.61456663222634 80.42845542804571,49.120131495568785 80.56571932922816,48.86872290915926 81.22153574583353,47.94688629311713 82.02986760812928,47.5613885892526 81.99936451896792,47.377019623578235 81.6485789938306,47.351878375986416 81.0385172109527,47.041802495732554 81.00801412182045,46.7149647691549 81.36642541922629,46.33784305545123 81.44268314208603,45.50817053332139 83.02884377754526,45.54169278211339 83.42538393646828,45.131044499568816 84.2260900264373,45.41598429419537 85.3394527802011,44.54440131908632 86.26979699911317,44.39354968749831 86.80360105913132,44.74553649187146 88.38213592235115,44.71201398973062 88.47364518974791,44.92152945300768 88.27537511033006,45.27351449322305 88.48127096207463,45.20646981433674 89.03795233892743,45.31541739586828 89.59463371583843,44.92152945300768 89.77002647836343,44.9718131021873 89.67089143866906,44.73715586733306 90.23519858781947,43.8320444935307 90.20469549868722,43.48005463676964 90.46397175642778,43.45491245913581 90.74612533100299,43.220251845166786 91.50107678730274,43.13644435634342 91.88236540157232,42.87664071725885 91.9815004413249,42.54979006755457 92.28653133276384,42.40731639002479 91.9281200352998,42.46598204528709 91.96624889675877,42.566551664014696 92.24840247130487,42.32350825440517 91.9281200352998,42.50788606476999 92.41616946159047,42.40731639002479 92.61443954103743,42.809594512822514 92.75932921448839,42.81797529071628 92.75932921448839,42.71740591205162 92.63731685793027,42.70902512616158 92.66781994703342,42.84311762038851 92.75932921448839,42.77607139459724 92.64494263016968,42.70902512616158 92.7135745807609,42.79283295504865 93.2702559576137,42.46598204528709 93.17874669021694,42.214557578416134 92.24840247130487,41.192091896693455 92.3170344218961,40.80656947269745 94.94030008825939,40.597045824324596 94.93267431596178,40.0355203912477 95.58849073256715,39.809233176361886 96.19092674314743,39.901424322590174 96.91537511034403,39.490754050260875 97.69320388347842,39.24770354291104 98.32614298322005,38.71969533547963 99.08872021184652,38.803506338801526 99.43950573698385,38.669408701469365 100.78164165929775,37.7726263625882 101.78061782877194,36.94288636888086 101.88737864076393,36.79202384944074 101.80349514560658,36.54058583675942 102.26866725506261,36.04608932702831 102.77959399821702,36.59087348731555 103.01599293909385,37.03508002437593 103.62605472197174,37.051842498513 103.69468667256297,38.91246054342628 103.99971756400191,39.113606471175444 103.9387113857083,39.28122778416582 103.70231244483148,39.34827623467572 103.85482789052185,41.192091896693455 104.46488967339974,41.17533008152532 104.74704324800405,40.91552160512947 105.39523389234091,40.77304571696732 108.6895675198466,41.30104363033024 109.82580759047414,41.66980250792403 110.10796116504935,41.14180644314183 110.44349514559144,41.04123546405026 110.6951456310635,41.21723461445072 111.16794351278804,41.25913913074328 111.59498676084331,41.70332597822562 112.56345984112704,41.78713460731524 113.0438834951492,41.96313251135143 113.6539452780271,41.795515466576035 116.44497793467599,41.78713460731524 116.59749338036636,41.61113640921394 116.52886142983334,41.502184996337746 117.13892321271123,41.34294811324071 117.10079435125226,41.225615519033454 116.94827890553279,41.31780542550405 116.9559046778304,41.15856826367235 117.16942630184349,41.225615519033454 117.18467784638051,41.52732764008397 117.29906443069922,41.66142163868062 117.29906443069922,41.53570851997938 117.16180052957498,41.577612909568415 117.29906443069922,41.14180644314183 117.74898499556002,40.87361695214349 118.54206531331874,40.73114100730163 119.25126213589101,40.45456950535299 120.0214651368151,40.47971239915205 120.85267431594548,40.34561689606926 120.9213062665367,40.97418809129158 121.1424536628183,41.32618632209051 121.18058252424817,41.6530407687751 120.8603000882431,44.20079451052152 120.54001765223802,45.231611573923146 120.47901147397351,46.0948083468611 120.78404236541246,46.46355044334632 121.46273609885247,46.55573576581082 121.60000000000582,46.87419353183941 121.37122683139751,47.133987312226964 120.6925330979575,47.11722644249676 120.4180052956508,47.2764545972168 119.5257899381977,49.178793412749656 118.89285083848517,49.91625472839951 118.16077669899096,50.23470233725675 117.47445719328243,50.82131383426167 116.81101500443765,51.8855863560384 116.58224183582934,53.31018629390019 116.52123565753573,54.90236343508877 116.35346866727923,55.555987086787354 115.82729037952959,56.075531200374826 115.77390997350449,56.35206170038873 115.91117387465783,56.76266625586868 115.24010591351544,58.715110929493676 115.2248543689202,58.99163450461492 115.46887908206554,59.3016752261974 115.40787290377193,59.74578602256224 115.62139452778501,60.27368887497141 115.54513680492528,61.103245159072685 115.04183583406848,61.95793268499983 114.97320388347725,64.90738936606067 114.85119152691914,64.96604249744269 114.78255957635702,66.50777025101706 114.56903795234393,67.55512679067033 114.12674315975164,68.50192815023183 113.61581641656812,69.05492324208171 112.50245366280433,69.2057395820666 112.21267431596061,69.00465108082426 112.10591350396862,68.59409420025622 111.39671668139636,68.50192815023183 111.27470432478003,69.09681669148995 110.55788172991015,69.01302977604064 110.50450132394326,69.37331304019608 110.74852603705949,70.02684698271332 110.64939099733601,70.26144792300329 110.51975286848028,70.13576891273988 110.22997352163657,70.36199102336104 109.70379523388692,71.17471089924948 109.42164165928261,71.31714569644828 109.10135922330664,71.23336054492393 108.95646954985568,71.30876718428044 108.89546337159118,71.90363989355683 108.575180935557,71.81147673569649 108.27777581641567,71.95391067297169 107.71346866723616,71.20822498649795 106.85175639894442,71.33390271876124 106.63060900266282,71.09930416404677 106.64586054719985,70.93173344832758 106.85938217121293,70.69713399901957 107.03477493376704,70.91497636208805" stroke="#4DD2FF" stroke-linecap="round" stroke-linejoin="round" stroke-width="0.5"><title>2025-04-28 14.8km</title><desc>1745826563000</desc></polyline><polyline fill="none" points="144.5409461663803,71.37951725668972 146.69540899555432,71.2131758753385 146.92696341179544,72.36647198248829 148.75926357490243,71.96725519333268 149.10156140761683,71.77873575132253 149.3633185737417,71.22426530703524 150.25933348870603,70.93593979285652 150.48082032159436,70.98029760358622 151.1150780703756,71.55694784178922 153.01785131671932,72.01161267154384 155.937450477737,71.00247650359961 160.11549755302258,70.0709596246088 161.32360755064292,72.26666789380397 163.36732696340187,72.89875923271757 164.6761127942009,72.90984852855763 165.30030295968754,72.29993593139807 165.69293870893307,71.63457365076465 165.96476345841074,70.12640723442746 165.753344208817,68.91764427335875 165.8338848752901,68.5960449994891 166.55875087395543,67.60906322306255 167.36415753903566,67.45380701813701 167.5051037054509,66.98803735197725 168.27024003723636,65.93450490785472 168.2501048706472,65.08058321657154 168.92463295266498,64.83660461675026 169.1662549522007,65.19148243704694 169.33740386855789,67.57579405105207 169.4984852015623,67.66451182523451 170.02199953387026,67.45380701813701 170.83747378236149,67.65342210661038 171.0790957818972,67.29855063799187 171.08916336519178,66.92149869949208 171.75362386391498,66.20066123443394 171.88450244697742,65.84578601788962 172.46842227916932,65.51308967082878 172.6597063621739,65.02513357279531 173.13288277789252,64.6702553232899 173.43491027731216,64.03812617334188 173.37450477742823,63.70542545377248 172.9013283617096,63.228553018998355 172.28720577951754,62.07518029455241 172.2268002796336,61.742474826576654 172.4080167792854,61.35431742997025 174.21011419245042,60.943978419505584 175.18666977394605,60.8885271079489 175.388021440187,60.60017992752546 176.10281985549955,60.24529026016535 177.28072710323613,60.18983866691269 177.542484269361,59.945851390955795 177.49214635282988,59.55768892343622 178.58951293409336,59.33588130722637 179.06268934975378,58.81463200088183 179.5459333488834,58.570642285005306 179.61640643206192,58.005028096849856 179.8882311814814,57.63904120596271 179.52579818223603,56.38580598880799 179.64660918200389,55.60945985941362 179.52579818223603,54.91074459517404 179.18350034957984,54.65565718540165 179.36471684923163,53.92366459938057 179.9788394313655,53.02530473578372 180.17012351431185,52.98094113363186 180.51242134696804,53.61312111283041 181.23728734557517,53.524394273561484 181.33796317875385,53.95693707421742 181.08627359592356,55.42091799504851 181.75073409458855,54.92183534139622 182.25411326030735,54.322933765775815 182.2843160102493,54.01239118100784 182.7071545094368,53.757302104517294 183.2810067582759,54.24529818532028 183.1299930086243,54.57802179283317 183.40181775810197,55.03274275431613 183.32127709157066,55.33219232234842 183.56289909110637,55.476371511409525 184.5394546725438,55.188012982092914 184.3683057561866,54.94401683111937 184.46898158936528,54.51147713574028 185.1133069214411,54.51147713574028 185.56634817057056,54.36729693489178 185.8683756699902,54.06784526543197 186.16033558611525,54.05675445032102 185.98918666975806,53.72402958141174 186.07979491958395,53.258213412205805 185.56634817057056,52.4929405652656 185.89857841993216,52.48184962310188 186.42209275229834,51.99384728318546 186.7845257515437,51.98275630079297 186.72412025171798,51.40602398294868 187.26776975061512,51.505843211110914 187.4389186669141,51.97166531750554 187.60000000003492,51.90511939893622 187.54966208344558,51.12874796898541 187.22749941737857,50.95129102654755 186.9456070845481,49.99745603645715 186.6234444185393,49.76454183590977 186.32141691911966,49.11016173208918 185.47573992080288,48.37813961960637 185.1133069214411,47.546291578313685 185.15357725473586,47.213550952285004 184.90188767190557,46.94735787159152 184.9421580050839,46.492610166176746 185.15357725473586,46.492610166176746 185.67709158704383,46.08222679915343 186.0294570029946,46.10440971518983 186.4422279188875,44.695787443321024 185.84824050340103,42.53291412269755 185.97911908640526,41.390459605718206 185.75763225357514,40.96896913331875 185.6066185038071,39.66012205847801 185.31465858768206,39.43828233576642 183.2004660918028,39.73776587681641 182.68701934278943,39.48265030892799 182.58634350961074,39.27190230872657 181.84134234441444,39.03896993245144 181.16681426239666,39.050061959336745 180.49228618032066,38.73948486855079 179.86809601489222,38.20706536563375 179.75735259847715,37.60809095911827 180.18019109766465,37.330787109014636 180.16005593101727,36.986929557642725 180.33120484737447,36.72071666891134 180.84465159632964,36.38794983272237 180.81444884638768,35.844428933902236 180.65336751338327,35.51165997555654 180.27079934743233,35.51165997555654 179.2942437659949,35.09015147143509 178.15660685155308,35.678044555425004 176.93842927052174,35.43401376932161 176.2336984386202,35.700229150905216 175.15646702394588,36.332488615007605 174.4819389419863,37.14222017127031 173.92822185967816,37.23095758596901 173.53558611049084,38.22924955277995 173.09261244465597,38.59528812352073 172.80065252853092,38.77276101901225 172.2268002796336,38.706208710085775 171.91470519691939,38.916957577828725 171.27037986484356,38.86149738080712 170.59585178276757,39.2497182898951 169.8307154509239,39.28299431678897 169.52868795150425,39.050061959336745 169.12598461896414,39.2497182898951 168.2501048706472,38.528735728650645 166.71983220690163,38.71730076381209 165.98489862505812,39.10552208025183 165.44124912610278,39.09443005787034 164.38415287813405,39.39391434825666 163.5888137963484,39.937421208262094 161.65583780006273,40.003972920938395 161.05178280122345,40.27017944944237 160.4376602190314,41.06879594096972 160.03495688649127,41.2129900906948 159.50137497088872,41.157530820244574 159.24968538800022,41.36827592889313 158.45434630621457,41.22408194210584 156.39049172686646,40.358914844327956 155.6857608949067,40.25908752104442 154.72934048005845,39.70448996001505 154.64879981358536,40.53638546226284 154.99109764624154,40.68058017057774 155.50454439525492,41.63447981470381 155.4340713120764,42.211253131812555 155.75623397814343,42.74365712232975 155.1119086460094,44.274307107269124 154.97096247965237,45.328005524133914 154.98103006288875,46.048952418379486 155.1219762293622,46.25969002714555 155.05150314612547,46.62570721129305 154.46758331387537,47.29119050373265 154.70920531346928,47.19136821527354 155.2830575623084,47.50192620803864 155.29312514566118,47.61283960684523 155.50454439525492,47.457560823451786 155.3535306455451,47.51301755193708 155.33339547889773,47.3355559420379 155.87704497785307,47.60174827098672 156.14886972738896,47.53520023707097 156.3703565602773,47.94557926632842 156.95427639246918,48.178496548775 158.00130505708512,48.95488464002847 158.46441388956737,49.84217994660867 159.6926590538351,50.851471395770204 159.79333488695556,51.26184052548342 159.56178047077265,51.82748245322 159.91414588672342,52.43748584558489 160.1859706362011,53.53548513160058 160.15576788625913,54.322933765775815 159.78326730366098,54.53365869168192 159.46110463759396,55.04383349066484 159.9242134700762,55.5429157014878 159.6825914705405,56.086358715321694 160.31684921932174,56.61870897292101 160.72962013515644,57.26196278442512 160.2564437194378,58.13811399747647 160.8403635516297,57.91630409153004 161.47462130041094,58.45973772559955 160.87056630157167,58.43755680297181 160.14570030290633,59.11407333325769 160.2765788860852,59.457875540414534 160.5886739687994,59.67968295986793 160.63901188533055,60.012393418248394 160.98130971798673,60.134387051308295 161.32360755064292,60.777624417816696 161.24306688416982,61.15469319943077 160.72962013515644,61.698114036684274 160.96117455139756,62.51878633319575 160.8403635516297,63.20637286549754 158.99799580516992,64.03812617334188 158.5952924725716,64.70352519809967 158.78657655563438,65.84578601788962 158.72617105569225,66.74406213550537 158.99799580516992,67.6866912598125 158.91745513863862,68.66258284194919 158.70603588904487,68.85110655422613 158.54495455604047,69.80481078633602 158.6859007224557,70.32601844474266 155.82670706132194,70.99138705403311 152.92724306689342,71.9894339342427 151.1150780703756,71.54585843691166 150.50095548824174,70.91376088209654 149.41365649033105,71.15772870356159 149.16196690750076,71.69002063041262 148.7894663248444,71.94507644886471 146.92696341179544,72.33320396095951 146.66520624561235,71.20208644277591 145.16513633186696,71.19099700931838 144.40000000002328,71.37951725668972" stroke="#4DD2FF" stroke-linecap="round" stroke-linejoin="round" stroke-width="0.5"><title>2025-04-26 18.7km</title><desc>1745625707000</desc></polyline><polyline fill="none" points="45.257544618682005,82.63391382389818 46.067495943716494,82.76677039086644 46.18431584638893,82.89962670167733 46.02855597616872,83.02226306897501 45.903948080027476,82.85874786408385 45.5612763655663,83.3492923147569 45.82606814496103,84.53476032160688 45.54570037854137,85.00485405699146 45.67030827468261,85.44428660555423 45.55348837209749,85.822400741803 45.28869659276097,86.23117044733954 44.79026500807959,86.47643110690842 43.964737696020165,86.21073201963736 43.17036235801061,86.65015687932464 43.4195781503513,88.11147986584547 43.86349378040177,88.5406737375306 44.198377501335926,89.18445953377523 44.51768523521605,90.53332456004864 44.45538128714543,90.67638445390185 43.39621416979935,91.0442513888047 43.442942130874144,93.19010271217121 42.975662520271726,93.75210035267082 42.50838290966931,93.94624392725382 42.53174689019215,94.06886063996353 42.32147106542834,93.88493548907718 42.15792320171022,94.2323492509604 42.02552731207106,94.20169516590977 41.70621957813273,94.58997923559946 41.238939967530314,94.80455633577367 41.036452136264415,94.74324866102688 41.06760411031428,94.83521015271253 40.91963223365019,94.82499221523176 41.028664142795606,94.96804320182127 40.80281233097776,94.90673567247723 40.87290427254629,95.04978648942779 40.66262844778248,94.92717152165278 40.67820443477831,95.07022229619179 40.53023255811422,95.0804401973146 40.39783666844596,94.93738944397774 40.34332071384415,95.13152968012582 40.14862087613437,94.8965177456339 39.37760951864766,95.28479790138226 39.027149810717674,96.22483553671191 39.050513791211415,97.46116986568086 38.67669010272948,97.95161039882078 38.66890210923157,98.22748166533711 39.35424553809571,98.4726996420286 39.33866955109988,99.21856562621542 39.75922120065661,99.61703866653261 39.96949702539132,100.13811532084219 39.790373174648266,100.59788556848798 40.0084369929682,100.70005631819367 39.992861005914165,101.06786976342846 40.41341265547089,100.62853680929402 40.79502433745074,99.86225170038233 41.519307733891765,99.47399732733174 42.29031909140758,98.49313443405845 43.26381828013109,97.83921808481682 45.21081665760721,97.12398997506534 46.565927528368775,96.44962524584844 47.57057869117125,96.52114909049851 47.78085451593506,97.6553029939314 48.80108166573336,98.00269775369816 48.73098972416483,98.43183003982267 48.91011357487878,98.94269832592545 49.626608977792785,99.59660420766886 49.75900486749015,101.07808677554567 50.319740400183946,101.47654906758544 51.15305570579949,101.4458982038268 51.23093564086594,102.05891289009742 51.37890751755913,102.05891289009742 51.44899945912766,102.24281623302522 51.41784748513601,103.45860932476353 51.238723634392954,103.71402531620697 51.262087614886696,104.02052325684053 51.45678745265468,103.87749105411785 52.01752298537758,103.83662465599627 52.274526771187084,104.20442136719066 52.5393185505236,103.90814083684381 52.944294213084504,103.76510840092669 53.4037858301308,103.93879060592008 53.63742563544656,104.23507100458664 54.35392103838967,104.4496180846254 54.66544077877188,104.37810246546724 54.89908058405854,104.11247237336647 55.10935640882235,104.2657206283111 54.945808545162436,105.62450692206039 55.24954029201763,106.72786255666142 55.45981611681054,106.70743020537338 55.59999999997672,107.03434709935391 54.96138453215826,107.39191067723004 54.564196863153484,107.92314456887107 54.299405083816964,107.90271257179847 54.25267712274217,108.05595240223192 53.8087614926626,107.93336056512635 53.598485667898785,108.02530446337187 53.4037858301308,107.79033647968754 53.09226608974859,108.43394252777944 52.92871822603047,108.3522151086363 52.82747431041207,108.4645902849661 52.63277447267319,108.26027164634434 52.48480259598,108.55653347482439 52.18885884259362,108.06616837881302 52.406922660855344,107.96400854484091 51.65148729039356,107.51450347705395 51.526879394223215,107.29996593434043 51.55803136827308,107.03434709935391 51.65927528392058,107.07521160211036 51.47236343965051,106.36007930708001 51.26987560838461,106.2579169450837 51.13747971871635,106.38051176128647 51.19978366678697,106.09445685110404 51.08296376420185,106.27834942960908 51.00508382904809,106.09445685110404 50.864899945881916,106.18640320163831 50.51444023792283,105.73688654432772 50.26522444561124,105.96164523935295 50.10167658192222,105.25671778660762 50.319740400183946,105.11368814851448 50.32752839368186,104.85827734246413 49.813520822062856,104.9093595793529 49.408545159501955,104.4496180846254 49.05029745804495,104.35766941778274 48.63753380201524,104.71524687775673 47.66403461329173,104.69481393000024 47.523850730096456,105.06260606300202 46.885235262307106,104.89914313500776 46.72168739855988,105.09325531884679 46.44131963222753,104.99109107969707 46.363439697102876,105.12390456110006 46.238831800961634,104.99109107969707 46.215467820409685,105.14433738164371 46.02855597616872,104.97065821369324 45.54570037854137,105.24650139373989 45.522336398018524,105.03195679350756 44.82141698215855,104.5619996220048 44.89150892372709,104.32701983492734 44.60335316386772,103.90814083684381 44.57220118981786,104.17377171621047 44.36971335855196,104.25550408859999 43.72330989720649,103.98987352411496 43.52861005946761,104.07160611447762 43.33391022172873,103.74467517157609 43.15478637101478,103.87749105411785 43.19372633853345,104.01030668079329 42.897782585176174,103.81619144780416 42.93672255272395,104.04095640444575 42.81990265008062,104.04095640444575 42.710870740935206,103.35644266325107 42.196863169257995,103.39730934601539 42.27474310435355,103.10102534700854 41.90870740939863,103.03972505032289 41.5893996754894,102.70257244414825 41.3323958896508,102.82517358261248 41.02087614926859,103.4381760045726 40.75608436993207,103.5199092490002 40.685992428305326,103.86727445683209 40.522444564587204,103.87749105411785 40.125256895582424,103.72424193616462 40.312168739852495,103.36665933619952 40.18756084368215,102.89669081269676 39.914981070847716,103.69359207170783 39.03493780421559,104.08182268148084 38.77793401837698,104.66416449703684 38.785722011874896,105.87991488959233 38.59102217410691,106.72786255666142 37.93683071929263,107.50428741874202 37.89789075171575,107.91292857109511 37.64088696590625,108.08660032744228 37.4617631151923,108.64847654206824 37.28263926442014,108.57696527813823 37.01005949158571,108.71998773184896 36.93996755001717,109.38401666632126 36.62065981607884,109.95609800484817 36.5505678744812,110.42601841068972 36.24683612762601,110.5486058159513 35.85743645214825,110.40558715528459 34.89172525686445,110.80399554353062 34.75154137366917,110.50774337172334 34.860573282814585,109.94588230827503 34.08956192532787,109.80286239743873 34.01946998373023,109.64962644947809 34.151865873427596,108.80171471503127 33.46652244453435,108.65869243087218 32.9836668469361,108.16832806139428 32.39177934016334,108.12746420654003 32.13477555435384,107.82098452295759 31.986803677660646,106.88110499830509 32.150351541349664,106.5133225661557 32.04131963220425,105.72667022261885 32.119199567328906,105.12390456110006 31.95565170358168,104.68459745384462 31.72979989182204,104.50070062431041 31.714223904826213,104.78676214718871 31.285884261742467,105.35888163213531 31.239156300696777,105.76753550043213 30.93542455381248,106.0331592159273 31.01330448887893,106.16597068992269 30.475932936707977,106.4315928703727 30.08653326120111,107.64731209754973 29.175338020548224,107.65752813468134 28.178474851272767,108.78128297830699 27.680043266620487,108.76085123553639 27.384099513234105,108.96516839080141 27.018063818250084,108.98560007303604 26.3638723634067,108.71998773184896 25.76419686313602,108.70977185211814 25.4448891292559,108.84257817031175 24.860789616010152,108.62804475995654 24.821849648433272,108.76085123553639 25.12558139534667,109.22056398345012 25.12558139534667,109.81307811518491 24.54926987559884,110.30343078746955 24.595997836673632,111.03895325751364 24.79848566793953,111.416927030441 24.736181719839806,111.86640665803134 23.879502433730522,112.93901665812155 23.45116279067588,113.0105233982249 23.015035154123325,112.8572945786218 22.75803136828472,113.03095388174552 22.298539751180215,113.0105233982249 22.524391562998062,114.20569650528341 22.166143861511955,115.48256796273927 21.23937263386324,116.5653364331738 21.169280692236498,116.8922065927909 20.896700919402065,117.14757282695064 20.64748512711958,117.99538194307388 20.032233639794867,118.25074409219087 19.962141698226333,118.58782068110304 19.5415900486405,118.31203086725145 19.035370470490307,118.28138748653146 18.529150892369216,118.48567643420392 18.38117901570513,118.70017917795485 17.633531638712157,118.72060797589802 16.80800432668184,119.06789661498624 16.22390481340699,120.15060879384691 16.434180638141697,120.90645439061336 16.1771768523613,121.10052151810669 16.480908599245595,121.36608617609454 15.507409410463879,120.87581216263789 15.133585722011048,120.95752474026085 15.234829637600342,120.64088796271244 14.790914007578976,120.64088796271244 14.323634396976558,120.08932365267538 14.152298539731419,119.49689781347115 14.456030286644818,119.1291826638626 14.019902650063159,118.07709793368122 12.797187668998959,117.39272352209082 12.937371552194236,117.17821671151614 12.68036776635563,117.17821671151614 12.50903190911049,116.98413854605315 12.921795565198408,116.5449069967508 12.727095727430424,115.18633589093952 13.326771227701101,115.32934463620768 13.054191454866668,114.97182221699768 13.420227149792481,114.93096239388251 12.524607896164525,114.46107268827473 12.39999999999418,113.90945894813922 12.532395889662439,112.76535712342593 12.820551649521803,112.48954402236268 13.879718766896985,112.00942228874192 15.024553812865634,111.79489873145212 16.28620876147761,110.6201150350389 16.582152514893096,110.57925263318612 16.558788534341147,110.41580278375477 16.691184424009407,110.48731214057625 16.660032449959544,110.32386207314266 16.839156300673494,110.50774337172334 16.963764196872944,110.0173921524256 17.617955651687225,109.15926912748546 17.431043807446258,108.1172482390466 17.890535424550762,107.7392563772737 17.836019469978055,107.29996593434043 17.96841535961721,107.12629219649534 18.100811249314575,107.24888546859438 18.0618712817668,106.9321857364921 18.217631151957903,107.08542772401415 18.155327203887282,106.59505216508114 18.03071930774604,106.58483597049053 19.191130340710515,106.01272665875877 19.635045970790088,106.01272665875877 19.923201730649453,105.4201798668073 20.26587344511063,105.3180161121054 21.03688480256824,104.67438097619743 21.434072471573018,104.92979246352479 21.792320173059124,104.8889266891274 22.555543537047924,104.45983459560375 22.680151433189167,104.5619996220048 23.529042725771433,103.75489178702264 22.04932395889773,102.49823672884668 22.220659816113766,102.08956348132779 22.687939426716184,101.78305695583549 22.882639264455065,101.38459643537499 22.181719848536886,100.62853680929402 21.971444023802178,99.89290326826449 22.695727420214098,98.62596043453959 22.874851270928048,98.00269775369816 23.482314764725743,97.42029966373957 25.039913466753205,96.38831903422397 25.958896700904006,96.01026285775879 26.285992428311147,94.60019720791752 26.722120064892806,93.73166415511514" stroke="#4DD2FF" stroke-linecap="round" stroke-linejoin="round" stroke-width="0.5"><title>2025-04-20 19.4km</title><desc>1745099741000</desc></polyline><polyline fill="none" points="100.08760055329185,115.22354159291717 101.63521032768767,111.85365291376365 102.86161807354074,110.47359513439005 105.31443356524687,109.63913930146373 107.88404979463667,109.47866682786844 109.51926012244076,108.38745231350185 110.30766510195099,106.97528796913684 111.4464722945122,102.22524432383943 112.38087819609791,100.49210635421332 117.05290770414285,98.63057949393988 118.4545165564632,97.18628549022833 119.0093200604897,95.96665541236871 119.09692061389796,91.79420881677652 120.87813186377753,87.9426813137834 117.60771120816935,86.46625267880154 116.2353025401244,86.53044534067158 113.2568837289,84.57256455571041 106.62844186439179,81.94064425126999 105.8984372537816,80.39999999999418 107.09564481524285,84.5404680701613 106.86204333975911,90.8955223580706 105.46043448732235,96.89742606843356 103.29962083988357,101.48705684035667 100.64240405720193,104.60027314288891 96.17477584024891,107.68137075964478 93.16715684451628,108.77258718528901 88.43672696768772,109.47866682786844 87.38552032818552,110.24893411851372 84.43630170135293,110.31312299298588 82.04188657854684,111.75736996624619 80.26067532866728,114.10024849622278 79.12186813598964,118.240370419604 79.32626942696515,120.23018133355072 80.37747606646735,122.05951496138005 83.03469284891617,123.60000000000582 86.30511350464076,123.21487929212162 88.14472512330394,122.47673024050891 87.79432291025296,122.21998242751579 94.77316698781215,117.95152608357603 97.16758211073466,117.47011839703191 98.7443920696387,116.53939523987356 100.40880258195102,114.93469509552233 101.69361069658771,111.62899266698514 102.65721678268164,110.5377839730645 105.46043448732235,109.6070448118844 107.67964850377757,109.57495031968574 109.60686067561619,108.22697934167809 112.26407745841425,100.46001113631064 117.11130807304289,98.47010263800621 118.8049187696306,96.67275748617249 119.50572319573257,90.15731412512832 120.90733204828575,87.87848887682776 117.75371213024482,86.53044534067158 116.00170106475707,86.49834901097347 114.27889018366113,85.56755433991202 113.92848797061015,84.8935292706301 106.54084131109994,81.74806404201081 107.09564481524285,85.02191508503165 106.21963928244077,93.1101389445248 105.19763282756321,97.25047644469305 104.02962545049377,99.85020151146455 101.25560793024488,103.8941849556868 95.94117436488159,107.80974931604578 92.61235334037337,108.90096539413207 88.20312549220398,109.6070448118844 86.97671774635091,110.3452174263366 84.26110059488565,110.28102855710313 82.47988934488967,111.27595488337101 80.23147514415905,113.97187194309663 79.09266795159783,117.72686923475703 79.18026850488968,119.45993311240454 80.05627403757535,121.7064863111591 82.83029155794065,123.40743969209143 84.55310243903659,123.56790662169806 89.19593176268972,121.54601864062715 93.69276016415097,118.27246422192547 96.99238100415096,117.40593066209112 99.4743966802489,115.80123396674753 102.7448173359735,110.44150071119657 107.85484961012844,109.47866682786844 109.0228569873143,108.74049262670451 110.19086436415091,107.16785612559761 111.65087358560413,101.55124711000826 109.72366141341627,108.29116853809683 107.62124813476112,109.63913930146373 105.11003227415495,109.92798959292122 102.48201567609794,110.82663362071617 100.43800276634283,114.93469509552233 98.21878875000402,117.21336739583057" stroke="#4DD2FF" stroke-linecap="round" stroke-linejoin="round" stroke-width="0.5"><title>2025-04-14 10.8km</title><desc>1744632646000</desc></polyline><polyline fill="none" points="152.02964378439356,110.99758504009515 154.43832589051453,110.17745159991318 155.06174949445995,110.08401834915276 155.78907703235745,109.56494351529545 155.7607395958039,109.25349762351107 157.13038236211287,108.46449803615542 156.85645380883943,108.0803780887145 155.54348591563758,108.01808826089109 155.0900869309553,107.77931031208573 154.3155303321546,106.37777875630127 154.38165101740742,105.23577894599293 154.23996383475605,105.02814154252701 154.80671256559435,104.45713697846077 155.2884489868302,103.3981764422133 155.53404010355007,103.19053611308482 156.166909519583,102.84792884721537 157.44209416408557,102.61952350327192 158.03718033147743,102.11080107217276 158.67004974756856,99.75404065105977 160.3419585035881,99.11033656643849 160.9087072344264,98.66389477053599 161.17318997549592,97.03385011768114 161.0598402293399,96.44204542425723 161.3148771582637,95.94368149366346 162.31613324943464,94.97809595705621 163.51575139642227,94.65623252234218 164.69647791900206,93.08843475209142 164.85705672606127,92.2162741883003 164.73426116775954,90.86649038386531 164.79093604086665,91.21951211317355 164.69647791900206,91.16759721294511 164.12972918810556,88.91447062160296 163.34572677715914,86.85858841325535 163.20403959444957,85.8825521740655 163.65743857913185,82.7882613087204 163.10958147258498,81.85372948771692 161.84384264034452,80.99187753447768 162.12721700582188,80.39999999999418 163.6857760156854,81.11648298863292 165.66939657361945,82.53905347842374 170.2222780448501,87.40890349591791 171.31799225782743,88.80025579406356 171.26131738483673,89.1532831193399 172.33813997340621,91.68674528486008 172.97100938955555,94.26168916345341 173.7266743640066,97.87483111383335 173.89669898326974,100.7507374805864 174.25563984614564,102.77525446299842 175.36079987126868,104.38446349094738 176.7493342619273,106.93839318581013 177.1177209369489,107.97656169250695 177.2216248709592,109.55456199756736 177.86394009925425,109.67914015597489 178.18509771343088,111.85923866974917 179.73421091109049,117.12246921833139 179.97035621560644,119.20901664256235 179.87589809380006,120.57926844288158 179.8003315963433,120.77650047199131 179.29970355075784,120.81802296645037 178.48736370319966,123.59999999999854 177.28774555627024,123.39239182126039 175.84253629256273,122.52043386418518 174.5012309628073,122.37510697160178 171.63914987200405,122.53081435033528" stroke="#4DD2FF" stroke-linecap="round" stroke-linejoin="round" stroke-width="0.5"><title>2025-04-12 10.7km</title><desc>1744420875000</desc></polyline><polyline fill="none" points="44.87744405574631,170.52224725537963 47.95160683180438,170.43934282880946 49.582987691508606,171.24765873743308 50.68629150989,171.59999999999854 50.84660061169416,171.4031035295484 51.22379849833669,171.42382948782324 51.855604958487675,169.7035637314475 52.119643479119986,168.49107361772622 52.13850337342592,165.36134612265596 51.95933437725762,165.16444022299402 50.422252989257686,159.96187125289725 50.233654045907315,159.14312135363434 50.167644415807445,157.70252359154983 50.1204946799553,157.56779061183624 49.43210853682831,157.42269340086204 49.43210853682831,156.40700839721103 49.168070016196,155.28767289052485 47.70642820553621,152.4581985673649 46.461675179656595,150.60294209986023 46.25421634200029,149.4835566947295 46.09390724013792,146.42592713691556 45.30179167824099,142.36279638791166 44.65112532378407,139.76108227993245 43.491241822368465,137.08675619759742 43.4818118752446,136.68249282176112 42.46337758132722,135.30384160784888 38.38021045853384,130.9293778877909 37.26747669297038,129.95495124640001 35.975573931238614,129.1152798817784 34.4007727545104,128.40000000000146 34.16502407536609,128.94941823047702 35.49464662576793,129.90311983764695 35.95671403687447,130.75315233366564 35.52293646731414,133.60383052565885 35.60780599177815,134.74408431399934 36.77711944031762,137.89527918151725 37.069447802437935,139.70925477730634 37.01286811946193,140.30008708374226 36.63567023281939,141.62685862860235 35.82469477655832,142.53900621983485 34.68367116950685,142.89142516798165 33.618087139795534,143.90721562064573 33.372908513469156,144.33218682526785 33.45777803793317,144.8815377897845 33.212599411664996,146.62286137399497 32.6750924232183,147.03745879400958 30.939982144685928,147.76300110164448 30.440194944909308,149.90850969485473 29.893258009280544,150.4785664190349 28.044988364796154,150.98643303444987 27.65836053097155,151.27664163948793 27.168003278377,152.3130956625464 26.57391660689609,152.93496411604428 25.13113469054224,153.4117279189013 24.03726081928471,154.23051385467988 22.896237212233245,154.8420088532439 22.00982217863202,155.05965892247332 21.08568735641893,154.93528749889083 20.604760050948244,154.49998658086406 20.284141847281717,153.3806346806232 20.029533273831476,153.30808376242203 16.587602558312938,153.21480395109393 16.3612838263507,153.26662607675098 16.417863509326708,153.55682959934347 15.918076309550088,153.67083794913196 15.955796098161954,153.7744818168503 15.861496626515873,153.6915667292633" stroke="#4DD2FF" stroke-linecap="round" stroke-linejoin="round" stroke-width="0.5"><title>2025-04-11 10.7km</title><desc>1744362364000</desc></polyline><polyline fill="none" points="98.61163095763186,154.74796647706535 98.12995190208312,155.03115210639226 97.11937035416486,155.14196361558425 92.85037166596157,155.1912131285062 81.50730214256328,155.75758046028204 78.87223436817294,155.64676975980547 78.40000000002328,155.80682961374987 78.66445124620805,160.31300547880528 78.61722780938726,164.5727208983808 78.77778749453137,165.00360498792725 79.16501967643853,165.12671432357456 82.94289462181041,165.29906709166244 86.31464801047696,165.1390252472338 89.24250109313289,164.72045283412444 93.0864888500073,164.5727208983808 93.23760384786874,160.47305647894973 92.94481853954494,153.60290184664336 93.03926541324472,150.56163321703207 93.38871884567197,150.24149329784996 92.8787057280424,135.76004776979244 93.02037603850476,135.37827534145617 93.79484040226089,135.37827534145617 92.9637079142849,135.40290587287018 93.22815916046966,134.70093290834484 93.09593353740638,135.14428493426385 93.30371665937128,134.99650118463614 93.12426759948721,135.15660023502278 93.40760822035372,135.37827534145617 96.1087888063048,135.34132953086373 97.24215128994547,135.5383736670119 116.14097070402931,135.37827534145617 118.19046786183026,135.4275363971101 118.60603410581825,135.64921079127816 119.62606034101918,135.66152601830254 119.73939658940071,138.136850139148 119.58828159165569,138.25999869547377 119.60717096633743,139.73776734405692 121.28832531702938,139.75008197397256 121.39221687801182,139.873228174416 121.59999999997672,145.80866182233876 121.55277656321414,145.9441129015686 121.01442938350374,145.90717171972938 121.1938784433878,146.81838281589444 121.38277219061274,147.01540013688646 121.3166593791102,147.27398467221792" stroke="#4DD2FF" stroke-linecap="round" stroke-linejoin="round" stroke-width="0.5"><title>2025-04-04 10.5km</title><desc>1743732425000</desc></polyline><polyline fill="none" points="173.59784986969316,149.43980244216436 173.98867619491648,149.17373554041842 173.98402350055403,148.88594735028892 174.32832288229838,148.44611702164912 174.60748454314307,147.79993975280377 174.5702629883599,147.49042341055974 174.67727495834697,147.20805600839958 174.71449651313014,146.4369679391857 174.52373604491004,145.65500772980886 174.61213723750552,144.81330123127918 174.47255640706862,144.2593965748747 174.64470609792625,143.65118070381504 174.80755040008808,143.37965345086923 174.68192765270942,143.23845871567755 174.74241267921752,142.92891506198066 174.4911671844602,142.57049377872318 174.4213767692563,142.22293137294037 174.48186179576442,140.86524332937552 174.84477195487125,140.12121515412582 174.9099096757418,139.66501739922023 174.8587300379295,138.9698511720453 174.68658034704276,138.65485089677895 174.6214426261722,138.0900180087774 174.68658034704276,137.66095813132415 174.8401192605379,137.67182045066147 174.94713123052497,137.49802306737183 174.95178392488742,137.28077551626848 175.52406532963505,136.87886513892227 175.90558626616257,135.917526285044 175.84510123962536,135.90123225202842 175.84510123962536,135.9989963730768 175.59385574483895,135.93382031293368 175.82649046223378,134.9616009893616 175.8776701000461,134.41302223630555 174.93782584182918,133.26696267991792 174.86803542662528,133.065992270509 174.900604287046,132.82699941463943 175.01226895139553,132.70750257212785 175.1983767253114,132.2240807064918 175.09136475529522,131.8438580834336 175.26351444615284,131.2029050409983 175.3286521670234,131.06167703026586 175.74274196397164,130.8118111423173 175.64503538265126,130.30664380745657 175.70086771485512,129.94270298843912 175.6078138278972,129.30172635580675 175.02622703445377,128.39999999999782 175.6078138278972,129.2745661533445 175.57524496744736,129.40493499492732 175.63572999398457,129.41036702285055 175.71482579788426,129.93727101650074 175.6496880770137,130.2523244450349 175.74274196397164,130.85526616618154 175.300736000936,131.0996999942181 175.11462822702015,131.76781322300303 175.22164019703632,132.1697633602489 174.9192150644376,132.82699941463943 174.87734081532108,133.10401375927904 174.94247853616253,133.261531057502 175.88697548874188,134.4021592318859 175.70552040921757,135.45586002647542 175.61711921656388,135.71656618534325 175.52406532963505,135.73286027660652 175.7194784922176,135.72742891343296 175.59385574483895,135.94468299534128 175.86371201701695,135.97183969133403 175.52406532963505,136.8842963810821 174.97504739661235,137.2644819131201 174.91456237007515,137.55776598381271 174.8401192605379,137.65552697080784 174.67727495834697,137.68811392538555 174.60283184880973,138.1063113516284 174.7098438187968,138.47562574521726 174.68658034704276,138.6765751153216 174.85407734356704,138.95355810143883 174.9192150644376,139.67587929733054 174.8401192605379,140.05604429284722 174.48186179576442,140.87067415259662 174.4213767692563,142.2012086449613 174.57491568272235,142.7442741052255 174.75637076227576,142.95063748412213 174.68192765270942,143.227597566216 174.81685578881297,143.4230979071981 174.65401148662204,143.63488910886736 174.47720910140197,144.25396610768075 174.60748454314307,144.79157959185613 174.52373604491004,145.66043804981746 174.70519112443435,146.39895625806093 174.67727495834697,147.13746391691893 174.5795683770557,147.512143916083 174.62609532053466,147.77278927060252 174.2306163010071,148.6198775985431 173.98867619491648,148.88594735028892 173.98402350055403,149.24432485186844 173.86305344750872,149.62441948782725 173.56993370360578,149.95564253524935 173.36521515232744,149.83618528734223 173.2116762388614,149.87962431851702 172.7929337475507,150.60179286553102 172.6626583058387,150.90043104634606 172.75571219279664,150.74296749322457 172.60682597363484,151.43254571251236 171.89031104411697,152.53476581830182 171.65767632675124,153.25146776616384 171.3645565828483,153.7781287758844 171.26685000155703,154.2342020183969 170.7038739854761,155.05403785401722 170.25721532810712,155.92272389795107 170.25256263374467,156.0095916999635 170.41075424157316,155.98787476314465 170.3456165207026,155.9281531398592 170.4247123246314,155.65126107639298 170.40144885287737,155.36893823066566 170.65734704199713,155.0051738306356 171.243586529803,154.4893841018602 171.3924727489357,154.59254245909688 171.53205357934348,155.03232051598752 171.15053264284506,155.8684314476195 171.09935300503275,156.8782616967219 170.94581409156672,157.45374753631768 170.92720331417513,158.20838435996484 170.74109554025927,158.93043662676791 170.74109554025927,159.85334590420825 168.02392204123316,162.01397500241 167.75406576905516,162.60568934408366 167.60052685558912,163.32768024725738 165.9302095847961,163.95194997517683 165.6510479239514,164.20708413089233 165.53473056523944,164.46221702874027 164.54370666918112,164.47307371990246 163.4317127201066,164.62506715693962 163.01762292315834,164.45678868231698 162.58026965448516,164.7444902585703 162.35228763142368,164.77163183415541 161.74743736625533,164.44050363959832 161.34265295800287,164.42421859176102 160.4353775602067,167.16546280783223 160.37954522803193,167.11118215321767 160.57030569631024,167.03518914109736 159.5978925776435,167.36087269310883 159.3187309167697,167.69741021058144 158.95582075766288,167.84939417864007 158.9372099802713,168.2836316283101 156.09441373383743,170.40048702993226 156.1223298999539,170.84555843390262 156.41544964385685,171.13865214687758 157.51813820423558,171.5837172046049 158.01597649944597,171.54029639179498 158.52312018332304,171.59999999999854" stroke="#4DD2FF" stroke-linecap="round" stroke-linejoin="round" stroke-width="0.5"><title>2025-01-24 17.7km</title><desc>1737679978000</desc></polyline><polyline fill="none" points="37.84105994057609,176.39999999999782 37.872250033469754,176.44377420876117 37.70070452251821,176.8742176332853 37.694466503933654,177.03107279885444 37.510444955842104,177.2608825661555 37.516682974412106,177.5891795754069 37.423112695731106,177.77521315912236 36.992689413702465,177.9575980506852 37.03635554376524,178.311421987848 36.98021337656246,178.24941186962315 37.20166303614678,178.54851846988458 37.16111591536901,178.7418420865688 37.23597213832545,179.04823955976462 37.17982997109357,179.28897852080263 37.220377091885894,179.2670932301844 37.30459034269734,179.58078106783796 37.117449785306235,180.14249401636698 37.23909114761045,180.34675100093955 37.279638268388226,180.52912228585774 37.10497374813713,180.65678161121468 37.120568794591236,180.846446021671 36.76812074483314,180.98139890906896 36.57162315955793,181.2768344670003 36.36888755571272,181.28048180374026 36.453100806553266,181.61968243433148 36.42502972293005,182.26524860772042 35.626563344718306,182.8488008480781 35.30842439713888,183.22081024607542 35.233568174167885,183.3776365346821 35.20861609985877,183.79705217385708 34.996523468144005,184.6905728283382 34.7126936227578,185.0917378359045 34.39455467517837,185.13185407997662 34.28227034074371,185.20843950725975 34.24796123855049,185.46372303647513 34.12631987624627,185.71535780862905 32.916144271745,187.5314499807937 32.376555664566695,188.4941588555339 32.282985385885695,188.90986574502676 32.0178695962386,189.62093170552544 31.63111244427273,189.9126468338909 31.169499069364974,190.6710946233252 30.717242722326773,190.8060090697909 30.63926749008533,190.87528925618244 30.46148396054923,191.32013766473756 30.46460296983423,191.42223321152414 30.561292257829336,191.4149406824945 30.82017002889188,191.15970119508347 30.891907242577872,191.15605490300732 30.90750228901743,191.2143955299216 30.47395999771834,191.8743670014992 30.127749966530246,192.1915863657232 30.255629347419017,192.49421821319993 30.236915291665355,192.8661235953041 33.683420557077625,205.5340363232026 33.9111082352465,205.96411696140785 33.86744210518373,206.05159033417658 33.92046526311606,206.0078536754845 33.96413139316428,206.04794561473682 33.9111082352465,206.05159033417658 33.96413139316428,206.04430089490415 33.954774365294725,205.98963005134647 33.98596445820294,206.01878784535074 34.41326873091748,206.71127821896152 34.385197647308814,206.7695925640328 34.53491009323625,206.9591135056544 34.45381585169525,207.30170641529912 34.28538935004326,207.53860378071113 34.135676904115826,208.05248325080538 34.07641572759894,208.10350632713016 34.01715455109661,208.06341677350065 34.03586860683572,208.2638640763871 34.57233820469992,208.73035511482158 34.815620929322904,209.26608314625628 34.887358142994344,209.59772014570262 34.815620929322904,210.0386830938478 34.61288532547769,210.52701565949246 34.81873993862246,211.04813906885465 34.781311827129684,211.38704727834556 34.853049040801125,211.66035792941693 34.85928705937113,212.42926029954106 34.72516965991235,212.80459505316685 34.478767926004366,212.97950694395695 34.4506968423957,213.09975835537261 34.52867207463714,213.40220702539227 34.38207863802381,214.03989133125287 34.48812495387392,215.16218713541093 34.39143566589337,215.4974112818818 34.21365213637182,215.80712635400414 34.223009164241375,216.23707914827173 34.28538935004326,216.45205354008067 34.08889176476805,216.57958008992136 34.079534736898495,216.63787778459664 34.441339814526145,217.41031295815992 34.43510179595614,217.64714104031373 34.335293498661486,217.97141070606813 34.400792693762924,218.07707095143633 34.41638774020248,218.41955366510956 34.25419925712049,218.64908805318555 34.21677114565682,219.26117230527962 34.12631987624627,219.54899389264756 34.12943888553127,219.59999999999854 34.22924718281138,219.59635670911666 34.30098439648282,219.56356707385567 34.29162736861326,219.51256091276082" stroke="#4DD2FF" stroke-linecap="round" stroke-linejoin="round" stroke-width="0.5"><title>2025-01-22 11.0km</title><desc>1737518708000</desc></polyline><polyline fill="none" points="117.47159251227276,218.78581685013341 118.17495775030693,215.6527099166342 118.1093103280873,213.22037729230215 116.38372094416991,207.5722423320185 116.19615688064368,205.54173946852097 115.41776601725724,205.3149808274975 115.36149679822847,203.79981062715524 114.95823406177806,202.72784277103347 113.68279843014898,200.34680549916084 112.4073627985781,198.35742043951177 111.99472185893683,193.77037984177878 110.38167091307696,186.98744665525737 109.39695957984077,184.9050767016015 109.44385059579508,184.58550210939575 108.77799817040795,183.67831832186494 104.18267861538334,178.74024049258878 101.83812782203313,177.039188830051 100.55331398721319,176.4412380843205 100.34699351742165,176.5752617676335 100.20632046979154,177.02887935783656 101.57553813315462,177.97734736144048 102.03507008869201,178.89488044382597 101.6318073522416,181.20414839409204 101.8943970410619,182.77112817455054 102.79470454569673,182.62680188289232 102.88848657748895,182.71958308887406 103.09480704728048,182.43093022961693 102.69154431083007,183.07008926659182 102.70092251402093,183.3071958484943 102.3726854029228,183.61646465021477 101.9881790727959,183.69893620583025 103.16045446950011,183.42059449492808 102.81346095207846,183.34843173142144 102.42895462195156,183.59584675307997 102.6821661076392,183.59584675307997 102.49460204417119,183.5649199012405 102.55087126319995,183.3690496679701 102.51335845055291,183.57522885269282 102.74781352985883,183.5546109489951 102.61651868541958,183.69893620583025 102.50398024730384,183.4618303417592 103.01978142187,182.96699931288458 102.86035196797457,183.04947128243657 102.86973017110722,183.52368408728944 102.71030071715359,183.59584675307997 102.51335845055291,183.45152138126286 102.57900587271433,183.3071958484943 102.70092251402093,183.38966760121548 102.50398024730384,183.61646465021477 102.38206360611366,183.07008926659182 102.76656993618235,183.04947128243657 103.2354800949106,182.47216639179533 103.11356345366221,182.8639092770245 102.59776227909606,183.4927572182205 102.28828157432145,183.07008926659182 102.36330719973193,183.21441506384144 103.11356345366221,182.3175307158599 103.05729423457524,182.15258579122747 103.21672368852887,182.22474922162655 102.81346095207846,182.78143718921638 102.14760852674954,183.16287015474518 102.04444829182466,183.44121241997345 101.74434579029912,183.4618303417592 101.68807657127036,183.8020255764568 101.86626243154751,183.8329523716311 101.93190985376714,183.6473914897433 102.96351220284123,183.0288532949853 102.74781352985883,182.6061838280948 102.81346095207846,182.82267323970882 102.03507008869201,183.45152138126286 103.85444150434341,181.99794973340613 103.07605064095696,182.48247543027537 103.07605064095696,182.37938500840391 102.38206360611366,183.51337513177714 103.01040321873734,185.98750090875546 102.91662118700333,186.33799823540903 103.12294165679486,187.33794127382134 103.10418525047135,188.16263074988092 102.77594813937321,189.461506019019 101.99755727598676,190.3067987957911 101.9412880568998,190.67790119791607 101.39735227287747,190.58512569714367 100.67523062851978,190.88406873936765 99.54046804452082,192.06952573029412 99.24036554293707,193.04880809958559 99.31539116834756,194.4094828832167 99.21223093342269,194.6156444816006 98.55575671128463,195.07950687756966 97.08337881305488,195.6052155837897 96.54882123216521,197.80079945799662 96.04239826078992,198.37803598546452 94.14800121978624,198.8934235674751 93.73536028014496,199.202655131965 93.36961035634158,200.0684995835909 92.68500152468914,200.84157009433693 91.15635440743063,201.33633279903734 89.18693174090004,202.6350759047491 88.16470759507501,202.94429853388283 87.21750907448586,202.82060957084468 86.78611172852106,202.47015686730447 86.5141438364517,201.88263108942192 86.45787461748114,201.16110455730814 83.00669584964635,201.16110455730814 82.584676706756,201.03741389098286 82.05011912592454,198.72849976442376 83.82259952567983,198.13064921740443 82.97856124007376,196.66693450082676 83.64441366540268,197.90387759808073 82.56592030043248,198.27495822287892 82.45338186237495,198.4604981364464 81.82504224975128,198.53265247547824 82.47213826875668,201.24356493589585 86.14839391270652,201.15079700630304 86.43911821115762,201.33633279903734 86.66419508727267,202.2846226991096 87.02056680788519,202.72784277103347 87.545746185584,202.92368371492194 88.19284220453119,202.94429853388283 89.149418928253,202.68661306089052 91.30640565813519,201.2641800223355 92.77878355642315,200.73849429291295 93.30396293412196,200.12003776124038 93.6509564515436,199.27480905739503 93.97919356258353,198.93465448541247 94.50437294034055,198.67696103292838 95.65789193066303,198.50172919223405 96.20182771474356,198.21311152592534 96.46441740356386,197.95541663736367 97.11151342256926,195.56398360554158 98.47135288274148,195.07950687756966 99.2591219493188,194.56410411279649 99.5217116381973,192.92510968275747 99.3997949968907,192.38908184406318 99.59673726354958,191.9561346615883 100.18756406346802,191.20362777967966 101.04098055226495,190.67790119791607 101.83812782203313,190.5542005154348 102.62589688861044,189.69860089149734 103.05729423457524,188.14201357703132 102.78532634256408,185.90503081157658 102.03507008869201,183.84326130173577 102.06320469820639,183.50306617540627 102.70092251402093,182.59587479944457 101.92253165057627,182.72989210763626 101.52864711731672,181.9154770936657 101.99755727598676,178.80209649528115 101.5567817268311,177.8742533500481 100.15005125076277,176.9876414608152 100.50642297137529,176.39999999999418 101.88501883792924,177.039188830051 103.9763581455918,178.55467230716022 108.31846621492878,183.17317913819716 109.58452364336699,184.81229706258455 109.49074161163298,185.07001811786176 110.11908122425666,186.28645457042148 110.61612599244108,187.69874356620858 111.21633099549217,190.15217248086265 111.98534365574596,193.97654245796002 112.22917693830095,197.63587426317827 112.43549740809249,198.5635757513155 114.25486882374389,201.33633279903734 115.13641992205521,203.212290881871 115.40838781406637,204.54193702186603 115.37087500141934,205.3149808274975 115.50216984585859,205.4283601976349 115.37087500141934,206.23232015682152 115.65222109656315,208.1803562845089 117.60288735671202,212.6844334556081 118.04366290586768,213.1997641088019 118.0155282963533,216.25047958808136 117.39656688686227,218.78581685013341 116.9370349313831,219.59999999999854 116.68382344569545,219.54846957253903 116.51501578855095,219.29081712784682 115.31460578239057,218.94040898090316 114.02979194757063,218.19836507103173 112.71684350329451,218.09530308077956 111.09441435430199,218.11591548538127 110.87871568131959,218.229283652101 110.4942093511927,217.88917885434785 110.16597224015277,217.89948507345252" stroke="yellow" stroke-linecap="round" stroke-linejoin="round" stroke-width="0.5"><title>2025-01-02 24.6km</title><desc>1735803099000</desc></polyline><polyline fill="none" points="184.02346483705333,177.6834250658576 185.03615780445398,177.6834250658576 186.44898799314979,178.32401874894276 186.2019897084101,179.32289859722732 186.14271012006793,180.00147711261525 186.2464493996813,180.8049053534305 186.7355060034315,182.6180127182779 186.84912521441584,184.0348086131562 186.6861063464894,185.03360490997875 186.11801029159687,186.57519660631078 184.23094339625095,190.51044015625303 183.74682675814256,191.36259406981844 183.71224699830054,191.568846285576 183.8456260720559,191.7425318790447 183.80610634648474,191.99220414608135 183.13427101203706,193.04515975608592 179.20699828473153,198.8632611213834 177.8830874785781,200.36655194386185 177.05811320754583,201.0666291670932 176.32699828472687,201.43565923641654 174.36583190393867,202.87377211749117 172.11814751286875,205.08243752810813 171.08569468266796,205.98324863939342 169.32706689537736,207.10110617063037 167.4202401372313,208.7887108409741 165.29111492281663,209.9987683014915 162.83101200687815,212.50020936432338 161.94675814753282,212.99940140601757 161.02792452831636,213.1730325668177 160.06463121785782,213.46603415154095 159.42737564322306,213.8784046267574 159.14579759861226,214.14427374707884 158.61228130359086,214.95272656248926 157.82188679245883,217.3617508034149 157.51560891937697,217.78494900804435 156.95739279591362,218.23527242914133 156.29049742710777,218.43059250985607 155.76686106345733,218.43601805969593 155.21852487136493,218.33835809675293 154.64548885077238,218.05080295224616 154.15149228132213,217.92601449479116 153.66243567754282,217.70356494114094 151.61728987994138,217.6764368973454 151.01955403087777,217.49739153854898 150.56507718696957,217.26408930764592 148.52487135506817,215.7720213493776 147.97653516294667,215.62552565065926 146.9589022298751,215.5658421279404 145.55101200687932,215.08837207230317 144.9680960548867,214.99613315488386 145.17557461405522,215.00698479868151 145.57571183535038,215.1263527668707 145.48185248713708,215.39221703860676 145.53619210977922,215.5604163505668 144.6074785591627,215.6635060471017 144.39999999999418,215.75031830268563 144.6716981132049,215.6363771946526 145.56089193825028,215.5604163505668 145.46209262436605,215.37593966389977 145.5658319039503,215.1372043900119 145.65475128643448,215.1263527668707 147.0379416809592,215.57669368138886 148.00123499144684,215.6200998780114 148.37667238421272,215.72318948465545 148.9991080617765,216.05958606823697 150.4909777015273,217.23153544476008 151.3554716981307,217.6113295483301 151.90874785592314,217.69813933324986 153.6278559176717,217.71984176227124 154.08727272730903,217.93144008462332 154.59608919383027,218.03995179106278 155.1641852487228,218.32208142270974 155.9051801029127,218.4522947066398 156.45845626073424,218.41431585775717 156.82401372212917,218.2895280630255 157.29331046313746,218.0019727133731 157.68850771870348,217.57877585061942 157.9108061749721,217.1392994158341 158.65180102916202,214.87133912753416 159.32857632933883,213.97064505082744 159.97077186967363,213.50944168702335 160.58826758147916,213.2706999011316 161.91711835333263,213.00482738645587 162.93475128646242,212.41881901220404 165.05399656947702,210.1886856904457 165.6467924528406,209.73830931065459 166.3038078902464,209.4832755878706 167.5140994854155,208.7181687143493 169.2233276157931,207.17707640775552 171.13015437393915,205.9506894083388 172.05392795882653,205.1584100077307 174.15341337907012,203.05285575453308 176.96425385936163,201.01778680275675 178.00164665523334,200.1169102697022 179.2168782161316,198.67873939218407 183.92960548884002,191.612267725337 185.17447684393846,189.25118688732618 185.23375643225154,188.87666311730936 187.5012006861216,183.66025623525275 187.60000000000582,182.75915079255356 187.36782161236624,181.6083241388078 187.52590051459265,182.48230275631795 186.83430531734484,182.63972628715055 186.6712864493893,182.5637287658683 185.85125214408617,182.5637287658683 185.4461749571201,180.90261895400545 184.86325900515658,180.98404684763227 184.39890222984832,180.745191417569 184.51746140653268,179.98519130725253 184.44830188681954,177.66170992039042 183.39608919381863,177.72685533606273 183.1886106346501,177.5477052933602 183.01077186965267,177.56942047509074 183.19355060035014,177.78657191246384 183.2034305317502,178.15572777041598" stroke="yellow" stroke-linecap="round" stroke-linejoin="round" stroke-width="0.5"><title>2024-12-28 29.7km</title><desc>1735369563000</desc></polyline><polyline fill="none" points="14.513327099033631,255.62535393702274 14.418104264652357,256.01061244761513 14.56774014729308,255.67351130611496 14.30927816813346,255.20798940956593 12.812919341551606,255.5290391513554 12.472837790031917,257.53558413080464 13.506685706612188,258.5468724062812 15.288713036454283,258.7716021881497 16.499403359834105,259.221060719894 15.900859829154797,259.4136853837408 14.254865119874012,264.999690704004 14.62215319549432,265.7541061677621 15.411142394994386,266.36405626198393 21.410180963459425,266.62087659630924 22.974556100321934,266.2998511082551 23.70913225162076,265.7701575184765 25.11026824376313,265.6738493877492 25.85844765708316,265.7541061677621 26.9739151460235,266.9740038224845 27.422822794003878,266.8295427871344 28.1710022072657,264.42183793998265 27.177964076865464,263.571106120944 26.076099850062747,263.90818912938994 25.559175891743507,263.7637250777043 24.389295354601927,261.2275552398496 25.178284554101992,260.16812955033674 26.71545316686388,259.14080036875384 27.164360814902466,258.96422744171286 28.00776306260377,259.09264413696656 29.08242076530587,258.7234458352905 29.28646969620604,258.4505595373048 29.136833813565318,256.3156080515182 28.728735951706767,255.43272430259094 27.76290434546536,254.53378266637446 27.10994776658481,254.59799296580604 26.82427926332457,253.93983606534312 25.246300864382647,252.0456119334267 25.355126960843336,251.25902015384054 25.872050919162575,250.3600529589021 26.388974877423607,250.07109804850188 28.48387723468477,250.9540140440804 29.0008011929458,250.82559022927308 31.449388363747858,251.46770817961078 32.23837756324792,252.52719665697077 32.64647542499006,252.60746062395629 33.06817654892802,253.58667748764856 33.5170841969084,255.35246188026213 32.673681949148886,256.5563936070248 32.3336003976292,259.10869621596066 30.19788825424621,261.64490265496715 30.129871943907347,262.83273111245944 32.156757990887854,260.5533761401457 33.91157879662933,259.42973742762115 34.02040489309002,258.980279534735 34.700567996129394,258.22582926400355 34.754981044330634,257.6158453595417 36.210530084732454,257.6158453595417 38.332638966152444,256.52428888912254 38.82235640025465,256.8934927212249 40.22349239245523,257.02191122782824 39.33928035857389,257.35900927313196 39.28486731031444,257.8566287824942 38.82235640025465,258.2579336097988 37.02672580833314,258.96422744171286 36.523405112093315,259.57420574389107 35.09506259585032,260.58547997700225 33.88437227252871,261.1312441293994 30.347524136886932,263.58715771033894 29.85780670272652,263.6834672097466 29.15043707564473,265.16020495710836 29.327279482327867,265.7701575184765 28.79675226204563,266.52456902357517 28.674322903563734,267.6000000000058 29.300072958343662,267.16661831521196 29.694567557948176,266.13933810099843 32.34720365970861,263.6834672097466 35.38073109911056,263.1698158161016 36.65943773277104,262.38328363710025 38.60470420733327,262.8166794406279 41.99191646021791,262.7845760916389 42.699286087357905,262.5919558503374 43.01216111477697,261.8535759176593 43.54268833511742,261.4683327395178 44.590139513718896,259.7026219055988 45.1886830443982,259.26921690956806 45.33831892703893,258.787654302243 45.05265042372048,257.59979311731877 45.46074828557903,256.65270771861833 45.324715664901305,255.27219941410294 45.74641678878106,254.03615189364064 45.48795480967965,253.29772892853362 46.848281015700195,252.3345629571122 48.20860722172074,250.93796107335947 50.61638460634276,249.4129208513914 52.00391733640572,248.94737910080585 52.67047717736568,248.41762289896724 54.34367841074709,248.03234446034185 55.35031980322674,247.63101167816785 55.309510017046705,247.47047825805203 55.52716220996808,247.58285167058057 54.765379534626845,247.30994466233824 53.71792835602537,245.81697381318372 52.60246086708503,245.59222419826256 52.167156481184065,243.81026864156593 51.051688992243726,242.65439400990726 49.82739540678449,240.6636996944726 50.670797654485796,240.34261743746174 50.94286289572483,239.53990872179565 51.84067819168558,238.65692406368908 51.35096075758338,237.45284551396617 51.704645571124274,236.2166479252919 51.010879206005484,235.54235394249554 48.86156380054308,234.3864141924132 48.34463984228205,233.32679475608165 47.011520160362124,231.52863517370133 46.91629732598085,231.27175343468843 47.25637887744233,230.7419334277074 45.964068981818855,227.88408343204355 45.92325919563882,226.55147142837814 45.270302616700064,225.41151661581534 46.05929181614192,224.54450280062156 46.072895078279544,224.73717298005067 45.65119395439979,224.91378708895354 44.76698192051845,224.39999999999418 43.66511769365752,224.91378708895354 41.86948710173601,226.82441704119265 40.38673153723357,228.83135448515532 40.305111964815296,229.82678527351527 41.189323998754844,230.8703748171538 41.17572073661722,231.40019436040893 39.61134559975471,234.03320856376376 39.62494886177592,234.22586628474528 40.46835110959364,234.0974278322101 42.16875886701746,234.32219505043759 44.00519924517721,235.0286040665087 44.63094929989893,235.87950132116384 46.018482030020095,236.69828458763368 48.05897133902181,237.14781071300968 48.50787898700219,237.62944431944925 48.8887703246437,238.7050870002131 49.868205192964524,239.84493855090113 49.85460193088511,240.61553740070667 48.94318337290315,241.89985982593498 48.929580110823736,242.42963955219602 47.2155690913205,243.4731394809496 47.242775615421124,245.17483114320203 46.56261251238175,245.56011708230653 46.140911388618406,248.01629117014818 45.732813526759855,248.75474070316704 45.74641678878106,250.13531029998558 46.100101602380164,251.67639590869658 45.37912871316075,253.5224667458824 44.68536234815838,253.69904621817113 42.78090565977618,254.95114911060955 40.06025324773509,255.83403575573175 39.4753129791352,255.44877678174817 38.08778024907224,255.46482925921737 37.31239431165159,254.75851859146496 36.42818227771204,255.27219941410294 35.611986554111354,254.822728792642 35.43514414737001,254.18062551759067 34.80939409259008,253.66694087536598 34.42850275489036,254.1003624106961 34.87741040287074,255.5290391513554 33.476274410728365,256.8774404000287 32.61926890088944,258.43450738635147 32.71449173532892,259.01238371554064 32.469633018248715,259.15685244248016 32.29279061144916,258.980279534735 32.59206237678882,256.6366553710832 33.54429072100902,255.28825191083888 32.700888473307714,252.83219949806517 32.388013445888646,252.63956619847158 32.78250804566778,253.50641405607166 32.5784591147094,254.03615189364064 32.673681949148886,254.98325417256274 32.23837756324792,255.28825191083888 31.28614921902772,255.1758843967691 30.333920874865726,255.75377355290402 29.327279482327867,258.595028817057 28.701529427606147,258.8679148465162 29.245659910026006,260.0397137957916 28.633513117325492,260.6015318927821 28.551893544965424,261.3720217870141 27.735697821364738,262.8808861174912 28.443067448504735,264.2452713640232 27.54525215254398,266.7813890771067 27.177964076865464,267.03820868147886 25.776828084723093,265.72200346097816 23.777148561901413,265.7701575184765 23.11058872094145,266.2677485207969 21.124512460199185,266.6529791064677 15.47915870527504,266.3801075460069 14.635756457631942,265.72200346097816 14.241261857852805,264.9836392690195 15.125473891734146,261.75726521787874 15.941669615334831,259.253164848109 16.553816408093553,259.253164848109 15.928066353255417,259.6384138387657 14.894218436733354,258.81975852520554 13.955593354534358,258.4505595373048 14.85340865055332,257.87268099663197 15.288713036454283,256.95770198857645 15.111870629654732,255.0474642753834 14.812598864315078,255.27219941410294 14.554136885213666,256.01061244761513 14.227658595773391,255.85008819107316 14.513327099033631,255.89824548644538 14.554136885213666,255.64140639512334 14.295674906112254,255.76982599697658 14.703772767854389,255.59324901549553 14.56774014729308,255.76982599697658 14.921424960833974,255.0474642753834 15.547175015555695,254.6300981050008" stroke="yellow" stroke-linecap="round" stroke-linejoin="round" stroke-width="0.5"><title>2024-12-22 20.2km</title><desc>1734826109000</desc></polyline></svg>