<?xml version="1.0" encoding="utf-8" ?>
<svg baseProfile="full" height="200mm" version="1.1" viewBox="0,0,200,200" width="200mm" xmlns="http://www.w3.org/2000/svg" xmlns:ev="http://www.w3.org/2001/xml-events" xmlns:xlink="http://www.w3.org/1999/xlink"><defs /><rect fill="#1a1a1a" height="200" width="200" x="0" y="0" /><text alignment-baseline="middle" fill="#e1ed5e" style="dominant-baseline: central; font-size:9.0px; font-family:Arial;" text-anchor="middle" x="100.0" y="100.0">2025</text><line stroke="#e1ed5e" stroke-width="0.3" x1="100.0" x2="100.0" y1="15.0" y2="10.0" /><path d="M 100.0 14.0 a86.0,86.0 0 0,1 42.46469731375804,11.215312516191453" fill="none" id="id13" stroke="none" /><text fill="#e1ed5e" style="font-size:6.75px; font-family:Arial;" text-anchor="middle"><textPath startOffset="22.20632615414155" xlink:href="#id13">January</textPath></text><path d="M 100.36148047927253 79.00311137660856 l 1.084441437817585 -62.990665870174325 a84.0,84.0 0 0,0 1.4454934592205289,0.03733283143056143 l -2.1685615322329816 62.9626662466014" fill="#4dd2ff" stroke="none" /><path d="M 104.66035177308747 79.52364482259891 l 0.696178656519433 -3.058825198590917 a24.137048982296573,24.137048982296573 0 0,0 0.4043258142189172,0.09569085698248933 l -0.7487281577008739 3.046388429467559" fill="#ff0000" stroke="none" /><path d="M 107.4271985657038 80.35727306442388 l 14.391298544436442 -38.06069610984364 a61.690613931974106,61.690613931974106 0 0,0 0.9900369265038743,0.3841189463370046 l -15.044318635939982 37.80733445961609" fill="#30ff39" stroke="none" /><path d="M 107.76421540070413 80.48803036053334 l 8.56788486341125 -21.531642374858 a44.1736979006686,44.1736979006686 0 0,0 0.7040785346325412,0.28721131263578925 l -8.937247267632179 21.38097017603863" fill="#ebff1a" stroke="none" /><path d="M 108.09893153111575 80.62456947434976 l 17.424874160062302 -41.68629373015255 a66.18155956195584,66.18155956195584 0 0,0 1.047295579866933,0.4483973111730358 l -18.139853497719553 41.380176891016724" fill="#36ff6f" stroke="none" /><line stroke="#e1ed5e" stroke-width="0.3" x1="143.23703022742887" x2="145.7803849466894" y1="26.81831364943548" y2="22.513508569990506" /><path d="M 143.74570117128098 25.957352633546492 a86.0,86.0 0 0,1 28.547481713284135,27.462654790039103" fill="none" id="id14" stroke="none" /><text fill="#e1ed5e" style="font-size:6.75px; font-family:Arial;" text-anchor="middle"><textPath startOffset="19.985693538727396" xlink:href="#id14">February</textPath></text><path d="M 111.2981086023043 82.29822771554956 l 3.486489115978241 -5.462598969058796 a27.48040074783936,27.48040074783936 0 0,0 0.39654607482179305,0.2579245977107833 l -3.580002216584314 5.401775447188484" fill="#ff3204" stroke="none" /><path d="M 115.4437574822437 85.77008943001954 l 22.281052788699494 -20.5298088209907 a51.29716758377326,51.29716758377326 0 0,0 0.5927420920279777,0.6545206226208994 l -22.63113852134351 20.14323541110025" fill="#96ff23" stroke="none" /><line stroke="#e1ed5e" stroke-width="0.3" x1="172.23445277983987" x2="176.4835382374775" y1="55.19839476539836" y2="52.563006222186495" /><path d="M 173.08426987136738 54.67131705675599 a86.0,86.0 0 0,1 12.851231095245387,41.99856678651699" fill="none" id="id15" stroke="none" /><text fill="#e1ed5e" style="font-size:6.75px; font-family:Arial;" text-anchor="middle"><textPath startOffset="22.20632615414155" xlink:href="#id15">March</textPath></text><path d="M 120.78858239683441 97.02765380044208 l 25.700679299384483 -3.6746765596298996 a46.96205238935673,46.96205238935673 0 0,0 0.10752968434932261,0.8012210471478486 l -25.76012498279164 3.2317371704173867" fill="#c9ff1d" stroke="none" /><path d="M 120.83666639777658 97.38593545837742 l 11.437996610214332 -1.4349541714192355 a32.52765630687123,32.52765630687123 0 0,0 0.06491536159245515,0.5561551749809148 l -11.461002324810377 1.237855258113468" fill="#ff7a0b" stroke="none" /><path d="M 120.96714384426684 98.82574320788733 l 15.865401640871983 -0.8885356906388331 a36.890263210523685,36.890263210523685 0 0,0 0.03005044261184049,0.6343173485273458 l -15.878345691717321 0.6153072354884875" fill="#ffb610" stroke="none" /><path d="M 120.98425023603335 99.18683210126433 l 4.200209993601019 -0.16276378218556364 a25.20336246820771,25.20336246820771 0 0,0 0.013067710061855864,0.4336536783348478 l -4.20238939811852 0.09043995642571678" fill="#ff1001" stroke="none" /><line stroke="#e1ed5e" stroke-width="0.3" x1="184.98032266829074" x2="189.97916517819016" y1="98.17113171792111" y2="98.06355123074" /><path d="M 185.9800911702706 98.14961562048488 a86.0,86.0 0 0,1 -9.607161424134198,41.387399972396054" fill="none" id="id16" stroke="none" /><text fill="#e1ed5e" style="font-size:6.75px; font-family:Arial;" text-anchor="middle"><textPath startOffset="21.466115282336823" xlink:href="#id16">April</textPath></text><path d="M 120.9904718944345 100.63252640178507 l 39.70202923526196 1.1963800443383252 a60.72005098949505,60.72005098949505 0 0,0 -0.04047386700091046,1.0444506657083485 l -39.67555323540985 -1.8796079570606798" fill="#32ff2f" stroke="none" /><path d="M 120.92983693683757 101.71520430193887 l 6.070761029507004 0.49750007442850946 a27.091112033236403,27.091112033236403 0 0,0 -0.04208849844701524,0.4644430731848039 l -6.061297934782913 -0.6019245361618839" fill="#ff2c04" stroke="none" /><path d="M 120.76222939487914 103.15116336523771 l 27.147712434312183 4.120312671919142 a48.45861006916566,48.45861006916566 0 0,0 -0.13226488167880854,0.8236135444706296 l -27.072765798272087 -4.587005446082976" fill="#b7ff1f" stroke="none" /><path d="M 120.70491114924044 103.5080841355445 l 27.089462001023147 4.589834324872778 a48.47554422817967,48.47554422817967 0 0,0 -0.14647360670580983,0.821501773276748 l -27.006441951978147 -5.055454848882745" fill="#b7ff1f" stroke="none" /><path d="M 120.5718875245553 104.21870165774334 l 33.92690486261636 6.9574310872144505 a55.63294271196659,55.63294271196659 0 0,0 -0.20045333756614003,0.9364512587567688 l -33.80211748632578 -7.5403961653873885" fill="#66ff29" stroke="none" /><path d="M 120.49622156327973 104.57218783832717 l 36.07971997213577 8.048471585728317 a57.96652659006536,57.96652659006536 0 0,0 -0.22562624183064303,0.9719919446190394 l -35.93583316437458 -8.668332187695922" fill="#4eff2c" stroke="none" /><path d="M 120.02730092923936 106.31721596034902 l 47.2258162384221 14.8964496581917 a70.5195106175763,70.5195106175763 0 0,0 -0.3751226566916819,1.154508824921442 l -46.96240133071417 -15.707157383090937" fill="#3cffa1" stroke="none" /><path d="M 119.9155931802556 106.66101706037122 l 23.233637979861 7.770778282003283 a45.49871280062064,45.49871280062064 0 0,0 -0.25481265741112297,0.7406048575977333 l -23.09643449150665 -8.169555842690317" fill="#daff1b" stroke="none" /><path d="M 119.26925614724726 108.34839909993367 l 43.96051211976552 19.04587790046591 a68.90899801531552,68.90899801531552 0 0,0 -0.48091561911331004,1.0843377630849094 l -43.626155415920934 -19.799764000043506" fill="#3aff8f" stroke="none" /><path d="M 118.97047184881838 109.00673069616215 l 53.33680577199623 25.323052036357204 a80.04296583332942,80.04296583332942 0 0,0 -0.6016438803662257,1.2395645945853737 l -52.89300863501529 -26.237405586907855" fill="#48f8ff" stroke="none" /><path d="M 118.64920377521936 109.65438752849418 l 12.454226704020673 6.447349303357705 a35.02412477963059,35.02412477963059 0 0,0 -0.28177323967318846,0.5330087804437901 l -12.341400956122591 -6.6607730988876295" fill="#ff9d0e" stroke="none" /><line stroke="#e1ed5e" stroke-width="0.3" x1="174.80103733775053" x2="179.2010983576182" y1="140.37084112569926" y2="142.7455964860345" /><path d="M 175.68104954172406 140.8457921977663 a86.0,86.0 0 0,1 -30.038265399797805,32.042727171017184" fill="none" id="id17" stroke="none" /><text fill="#e1ed5e" style="font-size:6.75px; font-family:Arial;" text-anchor="middle"><textPath startOffset="22.206326154141568" xlink:href="#id17">May</textPath></text><path d="M 118.30583269289576 110.29060199501025 l 8.83169966919615 4.964729425852988 a31.13150814631316,31.13150814631316 0 0,0 -0.26661617128001697,0.46486776777066663 l -8.744931501763753 -5.116017039481969" fill="#ff6609" stroke="none" /><path d="M 118.12598468904814 110.60418214915192 l 5.947638236731961 3.4795262327278578 a27.890682360933305,27.890682360933305 0 0,0 -0.2459946553843318,0.4123011920102812 l -5.886862705649401 -3.5813895186242433" fill="#ff3805" stroke="none" /><path d="M 116.0416608686014 113.55231037782055 l 20.554896222962796 17.36518030640615 a47.90823750844277,47.90823750844277 0 0,0 -0.5376159534346052,0.6253688114225153 l -20.252937759957412 -17.716426216990193" fill="#beff1f" stroke="none" /><path d="M 115.56566222782051 114.09645910891815 l 9.282299206010904 8.406166681454279 a33.52296757267632,33.52296757267632 0 0,0 -0.39102720578904754,0.42438280307293064 l -9.136225592226134 -8.564700739328543" fill="#ff880c" stroke="none" /><path d="M 114.55890576462653 115.13401014063108 l 17.84756272120638 18.552575281073356 a46.7436117249948,46.7436117249948 0 0,0 -0.5846605605383723,0.5528330526612352 l -17.5255663262772 -18.85704297048051" fill="#cbff1d" stroke="none" /><line stroke="#e1ed5e" stroke-width="0.3" x1="143.8653032363475" x2="146.44561519142675" y1="172.8068346515853" y2="177.08958963109032" /><path d="M 144.38136562736335 173.6633856474863 a86.0,86.0 0 0,1 -40.68145358897372,12.25698825130547" fill="none" id="id18" stroke="none" /><text fill="#e1ed5e" style="font-size:6.75px; font-family:Arial;" text-anchor="middle"><textPath startOffset="21.466115282336833" xlink:href="#id18">June</textPath></text><line stroke="#e1ed5e" stroke-width="0.3" x1="102.19456741930631" x2="102.32365962044197" y1="184.97166512339345" y2="189.96999836594603" /><path d="M 102.22038585953345 185.97133177190398 a86.0,86.0 0 0,1 -42.740103519485714,-10.115201625700543" fill="none" id="id19" stroke="none" /><text fill="#e1ed5e" style="font-size:6.75px; font-family:Arial;" text-anchor="middle"><textPath startOffset="22.20632615414155" xlink:href="#id19">July</textPath></text><line stroke="#e1ed5e" stroke-width="0.3" x1="58.666819895761336" x2="56.23545636021788" y1="174.27360380694188" y2="178.64263932499728" /><path d="M 58.180547188652646 175.14741091055294 a86.0,86.0 0 0,1 -31.652253787137756,-30.449443065178592" fill="none" id="id20" stroke="none" /><text fill="#e1ed5e" style="font-size:6.75px; font-family:Arial;" text-anchor="middle"><textPath startOffset="22.20632615414155" xlink:href="#id20">August</textPath></text><line stroke="#e1ed5e" stroke-width="0.3" x1="26.63291911575756" x2="22.317208475507996" y1="142.92168965132927" y2="145.44649492493687" /><path d="M 25.769776987707644 143.4266507060508 a86.0,86.0 0 0,1 -11.730757126820373,-40.83630448921669" fill="none" id="id21" stroke="none" /><text fill="#e1ed5e" style="font-size:6.75px; font-family:Arial;" text-anchor="middle"><textPath startOffset="21.46611528233685" xlink:href="#id21">September</textPath></text><line stroke="#e1ed5e" stroke-width="0.3" x1="15.007084014347285" x2="10.007500721073583" y1="101.09737516637583" y2="101.16192664675087" /><path d="M 14.007167355692545 101.11028546245083 a86.0,86.0 0 0,1 10.666146001902534,-42.60595125391555" fill="none" id="id22" stroke="none" /><text fill="#e1ed5e" style="font-size:6.75px; font-family:Arial;" text-anchor="middle"><textPath startOffset="22.20632615414155" xlink:href="#id22">October</textPath></text><line stroke="#e1ed5e" stroke-width="0.3" x1="26.266209847984243" x2="21.928928074336255" y1="57.711370442889674" y2="55.22380399835377" /><path d="M 25.398753493254645 57.213857153982495 a86.0,86.0 0 0,1 29.58750427330803,-30.492523968695096" fill="none" id="id23" stroke="none" /><text fill="#e1ed5e" style="font-size:6.75px; font-family:Arial;" text-anchor="middle"><textPath startOffset="21.46611528233685" xlink:href="#id23">November</textPath></text><line stroke="#e1ed5e" stroke-width="0.3" x1="56.762969772571076" x2="54.21961505331055" y1="26.818313649435495" y2="22.513508569990535" /><path d="M 56.25429882871897 25.957352633546506 a86.0,86.0 0 0,1 42.265352541879196,-11.944610805530505" fill="none" id="id24" stroke="none" /><text fill="#e1ed5e" style="font-size:6.75px; font-family:Arial;" text-anchor="middle"><textPath startOffset="22.20632615414155" xlink:href="#id24">December</textPath></text></svg>