<?xml version="1.0" encoding="utf-8" ?>
<svg baseProfile="full" height="200mm" version="1.1" viewBox="0,0,200,200" width="200mm" xmlns="http://www.w3.org/2000/svg" xmlns:ev="http://www.w3.org/2001/xml-events" xmlns:xlink="http://www.w3.org/1999/xlink"><defs /><rect fill="#1a1a1a" height="200" width="200" x="0" y="0" /><text alignment-baseline="middle" fill="#e1ed5e" style="dominant-baseline: central; font-size:9.0px; font-family:Arial;" text-anchor="middle" x="100.0" y="100.0">2024</text><line stroke="#e1ed5e" stroke-width="0.3" x1="100.0" x2="100.0" y1="15.0" y2="10.0" /><path d="M 100.0 14.0 a86.0,86.0 0 0,1 42.35913384403234,11.155469271406648" fill="none" id="id1" stroke="none" /><text fill="#e1ed5e" style="font-size:6.75px; font-family:Arial;" text-anchor="middle"><textPath startOffset="22.145653131862478" xlink:href="#id1">January</textPath></text><line stroke="#e1ed5e" stroke-width="0.3" x1="143.13028292997686" x2="145.6673583964461" y1="26.7553504044142" y2="22.446841604673864" /><path d="M 143.63769802327073 25.89364864446614 a86.0,86.0 0 0,1 29.32050498858742,28.57503671076993" fill="none" id="id2" stroke="none" /><text fill="#e1ed5e" style="font-size:6.75px; font-family:Arial;" text-anchor="middle"><textPath startOffset="20.669276256404974" xlink:href="#id2">February</textPath></text><line stroke="#e1ed5e" stroke-width="0.3" x1="172.87174338648825" x2="177.1583165268699" y1="56.24261187166439" y2="53.66864786411523" /><path d="M 173.72905801456457 55.72781907015455 a86.0,86.0 0 0,1 12.242430191666344,42.057860355516425" fill="none" id="id3" stroke="none" /><text fill="#e1ed5e" style="font-size:6.75px; font-family:Arial;" text-anchor="middle"><textPath startOffset="22.145653131862474" xlink:href="#id3">March</textPath></text><line stroke="#e1ed5e" stroke-width="0.3" x1="184.99686870605535" x2="189.99668451229388" y1="99.2704041080226" y2="99.22748670261217" /><path d="M 185.99683186730306 99.26182062694052 a86.0,86.0 0 0,1 -10.086455211305974,41.156179273409016" fill="none" id="id4" stroke="none" /><text fill="#e1ed5e" style="font-size:6.75px; font-family:Arial;" text-anchor="middle"><textPath startOffset="21.40746469413373" xlink:href="#id4">April</textPath></text><line stroke="#e1ed5e" stroke-width="0.3" x1="174.33088141563837" x2="178.70328620479359" y1="141.23008692659167" y2="143.65538615756765" /><path d="M 175.20536237346943 141.71514677278685 a86.0,86.0 0 0,1 -30.301960400862466,31.631185727798858" fill="none" id="id5" stroke="none" /><text fill="#e1ed5e" style="font-size:6.75px; font-family:Arial;" text-anchor="middle"><textPath startOffset="22.145653131862474" xlink:href="#id5">May</textPath></text><line stroke="#e1ed5e" stroke-width="0.3" x1="143.1302829299769" x2="145.66735839644613" y1="173.24464959558577" y2="177.55315839532614" /><path d="M 143.63769802327073 174.10635135553383 a86.0,86.0 0 0,1 -40.68552437913181,11.842963189579606" fill="none" id="id6" stroke="none" /><text fill="#e1ed5e" style="font-size:6.75px; font-family:Arial;" text-anchor="middle"><textPath startOffset="21.407464694133747" xlink:href="#id6">June</textPath></text><line stroke="#e1ed5e" stroke-width="0.3" x1="101.45913802915013" x2="101.54496967792366" y1="184.9874750549273" y2="189.98673829345242" /><path d="M 101.47630435890484 185.9873277026323 a86.0,86.0 0 0,1 -42.54439059252881,-10.42667462771756" fill="none" id="id7" stroke="none" /><text fill="#e1ed5e" style="font-size:6.75px; font-family:Arial;" text-anchor="middle"><textPath startOffset="22.145653131862474" xlink:href="#id7">July</textPath></text><line stroke="#e1ed5e" stroke-width="0.3" x1="58.13341422392154" x2="55.67067388415222" y1="173.97424548756322" y2="178.32567169271397" /><path d="M 57.64086615596768 174.84453072859336 a86.0,86.0 0 0,1 -31.369924170532247,-30.572349798747897" fill="none" id="id8" stroke="none" /><text fill="#e1ed5e" style="font-size:6.75px; font-family:Arial;" text-anchor="middle"><textPath startOffset="22.145653131862474" xlink:href="#id8">August</textPath></text><line stroke="#e1ed5e" stroke-width="0.3" x1="26.387840678322732" x2="22.057713659400548" y1="142.50000000000003" y2="145.00000000000006" /><path d="M 25.521815274538298 143.00000000000003 a86.0,86.0 0 0,1 -11.493303480769221,-40.785679425670985" fill="none" id="id9" stroke="none" /><text fill="#e1ed5e" style="font-size:6.75px; font-family:Arial;" text-anchor="middle"><textPath startOffset="21.40746469413373" xlink:href="#id9">September</textPath></text><line stroke="#e1ed5e" stroke-width="0.3" x1="15.003131293944662" x2="10.003315487706104" y1="100.72959589197737" y2="100.7725132973878" /><path d="M 14.003168132696942 100.73817937305945 a86.0,86.0 0 0,1 10.791469493833604,-42.45332614584628" fill="none" id="id10" stroke="none" /><text fill="#e1ed5e" style="font-size:6.75px; font-family:Arial;" text-anchor="middle"><textPath startOffset="22.145653131862435" xlink:href="#id10">October</textPath></text><path d="M 80.68587082218212 91.75594674310238 l -4.3936461091620975 -1.8753862616541543 a25.777153939633553,25.777153939633553 0 0,0 0.17720703080550834,-0.40548436568987656 l 4.360805196339611 1.9505326971198977" fill="#ff1902" stroke="none" /><line stroke="#e1ed5e" stroke-width="0.3" x1="26.387840678322718" x2="22.05771365940052" y1="57.49999999999999" y2="54.99999999999999" /><path d="M 25.521815274538284 56.99999999999999 a86.0,86.0 0 0,1 29.574782752854787,-30.34633250058573" fill="none" id="id11" stroke="none" /><text fill="#e1ed5e" style="font-size:6.75px; font-family:Arial;" text-anchor="middle"><textPath startOffset="21.40746469413373" xlink:href="#id11">November</textPath></text><path d="M 82.576782715395 88.27688183743585 l -8.941493600297271 -6.016235940460664 a31.77707765098905,31.77707765098905 0 0,0 0.3084045028232525,-0.4499713863993542 l 8.836899360658705 6.168842061930053" fill="#ff700a" stroke="none" /><path d="M 84.58840730492382 85.73525988315684 l -20.971637878984534 -19.41103493241388 a49.57617665949472,49.57617665949472 0 0,0 0.5834506117644825,-0.6196043308373327 l 20.635331433483778 19.768180723195727" fill="#aaff21" stroke="none" /><path d="M 87.83215693770416 82.88440491214696 l -5.828016333243282 -8.197834835187711 a31.0583433211224,31.0583433211224 0 0,0 0.43719041646353707,-0.30519286461037265 l 5.686430825605979 8.29667251560321" fill="#ff6609" stroke="none" /><path d="M 88.4268655584334 82.4767994020092 l -2.748412771601243 -4.161447235061164 a25.987125008790038,25.987125008790038 0 0,0 0.3743561281662736,-0.24265311943495133 l 2.6765710111779435 4.208014196200022" fill="#ff1c02" stroke="none" /><path d="M 89.03521579738668 82.08984904055464 l -7.821163967397117 -12.77528355745214 a35.97926819902154,35.97926819902154 0 0,0 0.529524440159636,-0.3179642118429276 l 7.6007067706800475 12.907661769830991" fill="#ffaa0f" stroke="none" /><line stroke="#e1ed5e" stroke-width="0.3" x1="56.869717070023135" x2="54.33264160355391" y1="26.7553504044142" y2="22.446841604673864" /><path d="M 56.362301976729285 25.89364864446614 a86.0,86.0 0 0,1 42.16139366436587,-11.88097634709845" fill="none" id="id12" stroke="none" /><text fill="#e1ed5e" style="font-size:6.75px; font-family:Arial;" text-anchor="middle"><textPath startOffset="22.145653131862474" xlink:href="#id12">December</textPath></text><path d="M 89.65649057296885 81.72400993836675 l -1.5353659173401535 -2.7128444600193196 a24.11719001095334,24.11719001095334 0 0,0 0.36205163410936325,-0.20082393834096493 l 1.4885700950746876 2.738801313793431" fill="#ff0000" stroke="none" /><path d="M 92.93061703081487 80.22567764915836 l -2.881586267274719 -8.060309645017995 a29.559914192871116,29.559914192871116 0 0,0 0.47928476959607474,-0.16672012238770295 l 2.74279572563364 8.108588199974283" fill="#ff5007" stroke="none" /><path d="M 96.41257539226777 79.30868818359171 l -7.327174126628839 -42.26119324164285 a63.891676755396475,63.891676755396475 0 0,0 1.082271751883599,-0.17808740491974512 l 6.600624871692167 42.38074664505826" fill="#33ff54" stroke="none" /><path d="M 97.48249496171623 79.15144685158666 l -2.291558786336325 -18.97739405606746 a40.115248542211,40.115248542211 0 0,0 0.6843739690969083,-0.07668553070480508 l 1.9654489156386175 19.013935347279237" fill="#ffe015" stroke="none" /><path d="M 97.84075906011542 79.11130261209362 l -2.7027040619950946 -26.14621010432432 a47.28552666518584,47.28552666518584 0 0,0 0.8081331507478423,-0.0765310495886901 l 2.2534713478622366 26.188752909418195" fill="#c5ff1e" stroke="none" /><path d="M 98.5590905019552 79.04949213459386 l -4.322728494134429 -62.8515235962184 a84.0,84.0 0 0,0 1.439422591470065,-0.0865920887012237 l 3.24316155053188 62.91646766274432" fill="#4dd2ff" stroke="none" /><path d="M 98.9189461498227 79.02784411241856 l -0.23606155865692244 -4.579531173591867 a25.585611281974874,25.585611281974874 0 0,0 0.4388227658594465,-0.018844937704156874 l 0.15741303219665584 4.582908679721853" fill="#ff1602" stroke="none" /></svg>